<svg width="770" height="182" viewBox="0 0 770 182" fill="none" xmlns="http://www.w3.org/2000/svg">
<g clip-path="url(#clip0_90_378)">
<path d="M581.566 31.3167C586.104 33.3013 588.872 37.6545 589.057 42.2933C592.589 39.2799 597.666 38.3567 602.204 40.3413C608.539 43.1112 611.427 50.4891 608.657 56.8237C605.888 63.1565 598.511 66.0433 592.177 63.2734L571.538 54.2488C565.204 51.4789 562.314 44.1029 565.083 37.77C567.853 31.4355 575.231 28.5468 581.566 31.3167ZM595.294 56.1449C597.69 57.1925 600.481 56.0981 601.527 53.7058C602.575 51.31 601.482 48.5193 599.086 47.4717C596.694 46.4255 593.903 47.5181 592.856 49.914C591.809 52.3063 592.901 55.0987 595.294 56.1449ZM574.655 47.1203C577.049 48.1671 579.839 47.072 580.885 44.6797C581.933 42.2838 580.842 39.494 578.448 38.4471C576.052 37.3994 573.261 38.492 572.214 40.8879C571.168 43.2802 572.259 46.0726 574.655 47.1203Z" fill="#0C0C0C"/>
<path d="M565.65 54.7942L596.527 68.2959C597.758 68.8341 598.318 70.2643 597.78 71.4934L590.009 89.2663C589.471 90.4955 588.04 91.0572 586.809 90.519L555.932 77.0173C554.701 76.4791 554.142 75.0472 554.679 73.818L562.451 56.0451C562.988 54.816 564.419 54.256 565.65 54.7942Z" fill="#0C0C0C"/>
<path d="M544.81 50.3985C545.532 50.2122 546.3 50.3685 546.894 50.8182L556.593 58.2106C557.486 58.89 557.797 60.0915 557.348 61.1178L555.044 66.3862C554.596 67.4125 553.503 67.9983 552.398 67.8043L540.385 65.7045C539.651 65.5738 539.015 65.1158 538.662 64.4596C538.311 63.8023 538.28 63.0202 538.578 62.3372L543.196 51.7761C543.494 51.095 544.09 50.5872 544.81 50.3985Z" fill="#0C0C0C"/>
</g>
<g clip-path="url(#clip1_90_378)">
<path d="M206.361 68.7113L202.256 69.3422L208.358 94.6903L209.763 94.4743L211.115 94.2666L212.541 94.0474L210.751 68.0366L206.643 68.6679L206.361 68.7113Z" fill="#0C0C0C"/>
<path d="M215.675 93.5658L220.697 92.7939L221.177 66.4343L214.951 67.391L215.675 93.5658Z" fill="#0C0C0C"/>
<path d="M191.828 70.9448L200.201 95.9439L205.224 95.172L198.055 69.9878L191.828 70.9448Z" fill="#0C0C0C"/>
<path d="M221.227 57.1095C220.629 56.548 219.919 56.1208 219.151 55.8214C219.16 55.4667 219.149 55.1104 219.093 54.7481C218.854 53.1906 218.033 51.8477 216.892 50.9345C216.038 50.2469 214.993 49.7909 213.873 49.6452C212.889 47.9788 211.212 46.8334 209.294 46.5102C208.421 44.0417 205.896 42.458 203.213 42.8705C201.938 43.0665 200.82 43.691 200.007 44.5673C199.427 45.1896 199.002 45.9468 198.755 46.7732C196.73 47.762 195.33 49.7127 195.045 51.9545C192.337 53.0594 190.636 55.9011 191.098 58.9191C191.11 58.9975 191.134 59.0709 191.149 59.1489C190.346 59.786 189.679 60.5758 189.208 61.4798C188.527 62.7919 188.24 64.3388 188.483 65.9102C188.71 67.3877 189.369 68.6927 190.312 69.7167L194.462 69.0789L194.378 68.5315C193.999 68.402 193.635 68.2299 193.311 67.9938C192.493 67.3907 191.91 66.4913 191.743 65.409C191.611 64.5448 191.765 63.7199 192.138 63.0011C192.509 62.2825 193.099 61.6845 193.828 61.306L195.19 60.6005L194.585 59.1923C194.473 58.9333 194.397 58.6786 194.357 58.4182C194.094 56.715 195.247 55.1185 196.938 54.8201L198.41 54.5585L198.293 53.0672C198.169 51.4759 199.176 50.0127 200.677 49.5411L201.714 49.2164L201.824 48.1351C201.874 47.6361 202.091 47.1692 202.422 46.8133C202.756 46.4569 203.19 46.2135 203.714 46.1315C204.337 46.0374 204.922 46.1995 205.394 46.5428C205.854 46.8831 206.178 47.3824 206.281 47.9895C206.282 48.0295 206.283 48.0887 206.29 48.1825L206.413 49.7899L208.023 49.7031C209.462 49.6216 210.786 50.5083 211.282 51.8322L211.711 52.9703L212.925 52.8993C213.633 52.8564 214.3 53.086 214.827 53.506C215.352 53.9295 215.72 54.5296 215.832 55.2493C215.9 55.6901 215.858 56.1187 215.727 56.5259L215.101 58.4636L217.127 58.6725C217.824 58.7452 218.473 59.0485 218.972 59.5161C219.471 59.9853 219.817 60.6064 219.931 61.3403C220.063 62.2095 219.758 63.9937 218.594 64.9015L218.614 65.3672L222.554 64.7617C223.151 63.5926 223.407 62.2351 223.192 60.8392C222.965 59.3583 222.243 58.0595 221.227 57.1095Z" fill="#0C0C0C"/>
</g>
<g clip-path="url(#clip2_90_378)">
<path d="M393.946 0H291.054V28H393.946V0Z" fill="white"/>
<path d="M300.595 20.4604L299.52 18.4266C303.522 16.3291 306.779 13.9567 309.287 11.3044L310.984 12.8775C308.319 15.7284 304.847 18.2586 300.592 20.4629L300.595 20.4604Z" fill="#0C0C0C"/>
<path d="M332.882 11.3935C332.213 12.3175 331.573 13.1346 330.935 13.8295V20.6742H328.597V16.0186C327.552 16.8509 326.369 17.6222 325.06 18.3476L323.923 16.3444C326.431 14.9418 328.52 13.2007 330.186 11.1186H324.702V8.80728H328.316V7.32837H330.652V8.80728H334.608C333.752 10.1182 333.175 10.9811 332.88 11.396L332.882 11.3935ZM334.752 18.116L331.964 15.8506L333.427 14.0611L336.231 16.3113L334.752 18.116Z" fill="#0C0C0C"/>
<path d="M350.52 19.18L348.465 18.1008L350.646 14.0458L352.702 15.1251L350.52 19.18ZM361.224 10.4389V12.3964H356.254V20.9364H353.918V12.3964H349.106V10.0851H353.918V7.61857H356.254V10.0851H358.903C358.592 9.74657 358.435 9.34439 358.435 8.88366C358.435 8.37457 358.623 7.94439 358.981 7.58802C359.338 7.2342 359.76 7.06366 360.275 7.06366C360.789 7.06366 361.224 7.2342 361.584 7.58802C361.941 7.94184 362.114 8.37457 362.114 8.88366C362.114 9.56075 361.818 10.0851 361.226 10.4415L361.224 10.4389ZM359.992 19.18L357.81 15.1251L359.866 14.0458L362.047 18.1008L359.992 19.18ZM360.91 8.24984C360.738 8.0793 360.521 7.98766 360.272 7.98766C360.022 7.98766 359.804 8.0793 359.634 8.24984C359.462 8.42039 359.369 8.6342 359.369 8.88111C359.369 9.12802 359.462 9.34439 359.634 9.51239C359.806 9.68293 360.022 9.77457 360.272 9.77457C360.521 9.77457 360.74 9.68293 360.91 9.51239C361.082 9.34184 361.175 9.12802 361.175 8.88111C361.175 8.6342 361.082 8.41784 360.91 8.24984Z" fill="#0C0C0C"/>
<path d="M378.003 14.1934L374.638 13.5622L375.075 11.2967L378.44 11.9127L378.003 14.1934ZM375.963 20.5291L374.888 18.4953C378.89 16.3978 382.147 14.0254 384.655 11.3731L386.352 12.9462C383.688 15.7971 380.215 18.3273 375.963 20.5316V20.5291ZM378.705 10.5076L375.34 9.87634L375.762 7.61089L379.127 8.22689L378.705 10.5076ZM385.185 9.6447L384.063 8.5807L382.972 9.69052L381.866 8.62652L382.957 7.5167L384.063 8.5807L385.154 7.47089L386.26 8.53489L385.185 9.6447Z" fill="#0C0C0C"/>
<path d="M317.909 27.9109H291V0H317.909V27.9109ZM316.427 22.8429V5.068H292.479V22.8404H316.427V22.8429ZM307.375 1.36436V3.71382H308.973V1.36436H307.375ZM311.1 1.36436V3.71382H312.697V1.36436H311.1ZM303.651 1.36436V3.71382H305.248V1.36436H303.651ZM299.928 1.36436V3.71382H301.526V1.36436H299.928ZM296.204 1.36436V3.71382H297.801V1.36436H296.204ZM292.482 1.36436V3.71382H294.079V1.36436H292.482ZM316.419 1.36436H314.822V3.71382H316.419V1.36436ZM307.375 24.0265V26.5465H308.973V24.0265H307.375ZM316.419 24.0265H314.822V26.5465H316.419V24.0265ZM312.697 24.0265H311.1V26.5465H312.697V24.0265ZM303.651 24.0265V26.5465H305.248V24.0265H303.651ZM299.928 24.0265V26.5465H301.526V24.0265H299.928ZM296.204 24.0265V26.5465H297.801V24.0265H296.204ZM292.482 24.0265V26.5465H294.079V24.0265H292.482Z" fill="#0C0C0C"/>
<path d="M343.272 27.9109H316.363V0H343.272V27.9109ZM341.793 22.8429V5.068H317.844V22.8404H341.793V22.8429ZM332.741 1.36436V3.71382H334.338V1.36436H332.741ZM336.463 1.36436V3.71382H338.06V1.36436H336.463ZM329.016 1.36436V3.71382H330.613V1.36436H329.016ZM325.291 1.36436V3.71382H326.889V1.36436H325.291ZM321.569 1.36436V3.71382H323.167V1.36436H321.569ZM317.844 1.36436V3.71382H319.442V1.36436H317.844ZM341.785 1.36436H340.187V3.71382H341.785V1.36436ZM332.741 24.0265V26.5465H334.338V24.0265H332.741ZM341.785 24.0265H340.187V26.5465H341.785V24.0265ZM338.06 24.0265H336.463V26.5465H338.06V24.0265ZM329.016 24.0265V26.5465H330.613V24.0265H329.016ZM325.291 24.0265V26.5465H326.889V24.0265H325.291ZM321.569 24.0265V26.5465H323.167V24.0265H321.569ZM317.844 24.0265V26.5465H319.442V24.0265H317.844Z" fill="#0C0C0C"/>
<path d="M368.637 27.9109H341.728V0H368.637V27.9109ZM367.155 22.8429V5.068H343.207V22.8404H367.155V22.8429ZM358.104 1.36436V3.71382H359.701V1.36436H358.104ZM361.828 1.36436V3.71382H363.426V1.36436H361.828ZM354.379 1.36436V3.71382H355.976V1.36436H354.379ZM350.657 1.36436V3.71382H352.254V1.36436H350.657ZM346.932 1.36436V3.71382H348.529V1.36436H346.932ZM343.21 1.36436V3.71382H344.807V1.36436H343.21ZM367.148 1.36436H365.55V3.71382H367.148V1.36436ZM358.104 24.0265V26.5465H359.701V24.0265H358.104ZM367.148 24.0265H365.55V26.5465H367.148V24.0265ZM363.426 24.0265H361.828V26.5465H363.426V24.0265ZM354.379 24.0265V26.5465H355.976V24.0265H354.379ZM350.657 24.0265V26.5465H352.254V24.0265H350.657ZM346.932 24.0265V26.5465H348.529V24.0265H346.932ZM343.21 24.0265V26.5465H344.807V24.0265H343.21Z" fill="#0C0C0C"/>
<path d="M394 27.9109H367.091V0H394V27.9109ZM392.521 22.8429V5.068H368.573V22.8404H392.521V22.8429ZM383.469 1.36436V3.71382H385.066V1.36436H383.469ZM387.191 1.36436V3.71382H388.788V1.36436H387.191ZM379.744 1.36436V3.71382H381.342V1.36436H379.744ZM376.02 1.36436V3.71382H377.617V1.36436H376.02ZM372.297 1.36436V3.71382H373.895V1.36436H372.297ZM368.573 1.36436V3.71382H370.17V1.36436H368.573ZM392.513 1.36436H390.916V3.71382H392.513V1.36436ZM383.469 24.0265V26.5465H385.066V24.0265H383.469ZM392.513 24.0265H390.916V26.5465H392.513V24.0265ZM388.788 24.0265H387.191V26.5465H388.788V24.0265ZM379.744 24.0265V26.5465H381.342V24.0265H379.744ZM376.02 24.0265V26.5465H377.617V24.0265H376.02ZM372.297 24.0265V26.5465H373.895V24.0265H372.297ZM368.573 24.0265V26.5465H370.17V24.0265H368.573Z" fill="#0C0C0C"/>
<path d="M302.57 11.3375C303.532 11.3375 304.312 10.5659 304.312 9.6142C304.312 8.66247 303.532 7.89093 302.57 7.89093C301.609 7.89093 300.829 8.66247 300.829 9.6142C300.829 10.5659 301.609 11.3375 302.57 11.3375Z" stroke="#0C0C0C" stroke-width="2.54" stroke-miterlimit="10"/>
<path d="M302.57 7.89093V11.3375" stroke="#0C0C0C" stroke-width="2.54" stroke-miterlimit="10"/>
<path d="M301.063 10.4746L304.078 8.75128" stroke="#0C0C0C" stroke-width="2.54" stroke-miterlimit="10"/>
<path d="M304.078 10.4746L301.063 8.75128" stroke="#0C0C0C" stroke-width="2.54" stroke-miterlimit="10"/>
<path d="M300.512 14.5091C301.474 14.5091 302.254 13.7376 302.254 12.7858C302.254 11.8341 301.474 11.0626 300.512 11.0626C299.551 11.0626 298.771 11.8341 298.771 12.7858C298.771 13.7376 299.551 14.5091 300.512 14.5091Z" stroke="#0C0C0C" stroke-width="2.54" stroke-miterlimit="10"/>
<path d="M300.512 11.0626V14.5091" stroke="#0C0C0C" stroke-width="2.54" stroke-miterlimit="10"/>
<path d="M299.005 13.6487L302.02 11.9255" stroke="#0C0C0C" stroke-width="2.54" stroke-miterlimit="10"/>
<path d="M302.02 13.6487L299.005 11.9255" stroke="#0C0C0C" stroke-width="2.54" stroke-miterlimit="10"/>
</g>
<path d="M412.088 21.632C412.088 23.6 410.968 25.28 408.712 26.64L407.64 24.864C409.224 23.904 410.008 22.816 410.008 21.584C410.008 20.944 409.72 20.448 409.16 20.096C408.68 19.792 408.104 19.648 407.416 19.648C406.088 19.648 404.6 20.16 402.952 21.168L401.864 19.408C403.832 18.176 405.688 17.568 407.416 17.568C408.712 17.568 409.8 17.92 410.664 18.608C411.608 19.36 412.088 20.368 412.088 21.632ZM427.592 13.568C426.536 14.576 425.72 15.776 425.128 17.168C424.536 18.56 424.248 20 424.248 21.472C424.248 23.088 424.6 24.592 425.32 25.968L423.272 27.216C422.248 25.536 421.736 23.584 421.736 21.344C421.736 19.296 422.184 17.504 423.096 15.968H417.928V13.568H427.592ZM444.024 17.984H440.536V15.584H444.024V17.984ZM439.592 16.72H437.576L435.272 22.112L433.064 21.168L434.968 16.72H433.976V14.32H435.992L436.808 12.432L439.016 13.376L438.6 14.32H439.592V16.72ZM444.648 20.752L444.12 23.088L442.92 22.832V23.76C442.92 24.752 442.6 25.584 441.944 26.288C441.288 26.976 440.456 27.312 439.464 27.312C438.568 27.312 437.816 26.992 437.192 26.336C436.568 25.664 436.264 24.896 436.264 23.984C436.264 22.784 436.68 21.824 437.512 21.12C438.296 20.448 439.288 20.112 440.52 20.112V19.12H442.92V20.384C443.416 20.48 443.992 20.608 444.648 20.752ZM440.52 23.76V22.512C439.288 22.512 438.664 23.008 438.664 23.984C438.664 24.224 438.744 24.432 438.904 24.624C439.048 24.816 439.24 24.912 439.464 24.912C439.768 24.912 440.024 24.8 440.232 24.56C440.424 24.336 440.52 24.064 440.52 23.76ZM460.12 16.608H454.44V14.208H460.12V16.608ZM460.616 25.952C457.176 25.952 454.712 25.104 453.224 23.424L455.032 21.792C456.04 22.928 457.912 23.504 460.616 23.504V25.952ZM451.752 25.68H449.352V13.92H451.752V25.68ZM473 18.416C473 19.344 472.76 20.192 472.28 20.976C471.784 21.76 471.128 22.4 470.312 22.88V23.664H468.04V21.44C468.856 21.104 469.48 20.736 469.896 20.336C470.44 19.808 470.712 19.168 470.712 18.416C470.712 17.696 470.456 17.04 469.944 16.448C469.512 15.936 468.92 15.536 468.184 15.232L469.08 13.136C470.248 13.632 471.176 14.32 471.864 15.184C472.616 16.128 473 17.216 473 18.416ZM470.168 26.704H467.88V24.64H470.168V26.704Z" fill="#0C0C0C"/>
<path d="M258.376 49.6H254.584V59.44H255.016C255.176 59.184 255.368 58.976 255.592 58.816C255.816 58.656 256.072 58.576 256.36 58.576C256.712 58.576 257.032 58.704 257.32 58.96C257.608 59.216 257.752 59.52 257.752 59.872C257.752 60.512 257.576 60.928 257.224 61.12C256.904 61.312 256.504 61.408 256.024 61.408C255.544 61.376 255.064 61.36 254.584 61.36V73.264H255.448C256.12 73.264 256.712 72.96 257.224 72.352C257.736 71.712 258.056 71.088 258.184 70.48C258.28 70.064 258.328 69.648 258.328 69.232C258.36 68.784 258.376 68.352 258.376 67.936V49.6ZM271.192 52.528V66.304H274.312C274.472 64.96 274.568 63.616 274.6 62.272C274.632 60.928 274.648 59.584 274.648 58.24C274.648 57.28 274.632 56.336 274.6 55.408C274.6 54.448 274.616 53.488 274.648 52.528H271.192ZM283.72 62.896C283.72 61.168 283.704 59.44 283.672 57.712C283.672 55.984 283.672 54.256 283.672 52.528H280.12C280.088 54.832 280.04 57.136 279.976 59.44C279.912 61.744 279.72 64.032 279.4 66.304H282.904C283.224 65.792 283.432 65.248 283.528 64.672C283.656 64.064 283.72 63.472 283.72 62.896ZM294.712 84.544C294.712 85.152 294.456 85.664 293.944 86.08C293.432 86.496 292.888 86.704 292.312 86.704C292.024 86.704 291.736 86.672 291.448 86.608C291.192 86.576 290.936 86.528 290.68 86.464C289.368 86.08 288.056 85.44 286.744 84.544C285.464 83.68 284.232 82.672 283.048 81.52C281.864 80.368 280.776 79.168 279.784 77.92C278.792 76.672 277.944 75.472 277.24 74.32C275.864 77.008 273.992 79.232 271.624 80.992C269.288 82.752 266.696 84.08 263.848 84.976C263.016 85.232 262.136 85.488 261.208 85.744C260.312 86 259.416 86.128 258.52 86.128C258.232 86.128 258.088 85.984 258.088 85.696C258.088 85.472 258.28 85.312 258.664 85.216C258.824 85.152 259.032 85.056 259.288 84.928C259.576 84.832 259.768 84.768 259.864 84.736C262.104 83.648 264.216 82.32 266.2 80.752C268.184 79.184 269.864 77.36 271.24 75.28C272.616 73.2 273.512 70.896 273.928 68.368H263.32C263.288 70.896 262.6 72.704 261.256 73.792C259.912 74.848 258.024 75.376 255.592 75.376H249.64V47.584H263.32V66.304H266.2V50.32H274.6C274.568 49.008 274.536 47.68 274.504 46.336C274.472 44.992 274.456 43.664 274.456 42.352H280.216C280.216 43.664 280.216 44.992 280.216 46.336C280.216 47.68 280.2 49.008 280.168 50.32H289.288V61.504C289.288 62.272 289.192 63.104 289 64C288.84 64.896 288.52 65.664 288.04 66.304H289.72C289.72 65.664 289.976 65.12 290.488 64.672C291.032 64.192 291.608 63.952 292.216 63.952C292.792 63.952 293.32 64.176 293.8 64.624C294.28 65.072 294.52 65.6 294.52 66.208C294.52 67.008 294.216 67.568 293.608 67.888C293.032 68.208 292.408 68.368 291.736 68.368H279.16C279.096 68.752 279.016 69.136 278.92 69.52C278.856 69.904 278.76 70.272 278.632 70.624L281.368 69.376C281.72 70.528 282.216 71.776 282.856 73.12C283.496 74.432 284.232 75.76 285.064 77.104C285.896 78.416 286.776 79.648 287.704 80.8C288.632 81.952 289.528 82.944 290.392 83.776C290.552 83.392 290.856 83.04 291.304 82.72C291.752 82.4 292.184 82.24 292.6 82.24C293.24 82.24 293.752 82.464 294.136 82.912C294.52 83.392 294.712 83.936 294.712 84.544ZM316.168 75.136V66.448H312.952V75.136H316.168ZM316.168 64.336V56.32H312.952V64.336H316.168ZM325.24 56.32H321.592V64.336H321.784C321.784 63.984 321.944 63.696 322.264 63.472C322.616 63.248 322.952 63.136 323.272 63.136C323.816 63.136 324.216 63.312 324.472 63.664C324.728 64.016 324.856 64.432 324.856 64.912C324.856 65.52 324.616 65.936 324.136 66.16C323.688 66.352 323.192 66.448 322.648 66.448C322.424 66.448 322.2 66.448 321.976 66.448C321.784 66.448 321.656 66.448 321.592 66.448V75.136C322.872 75.104 323.8 74.656 324.376 73.792C324.952 72.928 325.24 71.92 325.24 70.768V56.32ZM338.44 75.808C338.44 78.016 337.928 79.76 336.904 81.04C335.912 82.288 334.584 83.184 332.92 83.728C331.288 84.272 329.48 84.544 327.496 84.544H300.04V54.16H305.608V82.096H326.056C328.104 82.096 329.72 81.568 330.904 80.512C332.12 79.456 332.728 77.888 332.728 75.808V54.16H338.44V75.808ZM341.56 45.328C341.56 46.256 341.224 46.928 340.552 47.344C339.912 47.728 339.176 47.92 338.344 47.92H321.688V54.16H330.568V70.096C330.568 71.92 330.2 73.376 329.464 74.464C328.728 75.52 327.72 76.288 326.44 76.768C325.16 77.216 323.672 77.44 321.976 77.44H307.96V54.112H316.024V47.92H297.448V45.616H335.608C335.608 44.752 335.896 44.016 336.472 43.408C337.08 42.8 337.816 42.496 338.68 42.496C339.512 42.496 340.2 42.768 340.744 43.312C341.288 43.824 341.56 44.496 341.56 45.328ZM134.92 137.52C134.92 138.544 134.52 139.392 133.72 140.064C132.952 140.736 132.152 141.264 131.32 141.648C129.72 142.448 127.992 143.024 126.136 143.376C124.28 143.696 122.456 143.856 120.664 143.856C119.128 143.856 117.592 143.712 116.056 143.424C114.552 143.136 113.128 142.672 111.784 142.032C110.44 141.36 109.304 140.464 108.376 139.344C107.448 138.192 106.808 136.768 106.456 135.072C106.68 134.912 107.08 134.624 107.656 134.208C108.264 133.76 108.872 133.344 109.48 132.96C110.088 132.576 110.488 132.384 110.68 132.384C111 132.384 111.208 132.56 111.304 132.912C111.464 133.392 111.624 133.856 111.784 134.304C111.944 134.72 112.152 135.152 112.408 135.6C113.432 137.328 114.888 138.656 116.776 139.584C118.664 140.512 120.584 140.976 122.536 140.976C123.848 140.976 125.112 140.88 126.328 140.688C127.576 140.464 128.808 140.144 130.024 139.728C129.48 139.12 129.208 138.448 129.208 137.712C129.208 137.008 129.48 136.384 130.024 135.84C130.6 135.296 131.224 135.024 131.896 135.024C132.536 135.024 133.192 135.264 133.864 135.744C134.568 136.224 134.92 136.816 134.92 137.52ZM132.808 113.904C132.808 114.576 132.552 115.28 132.04 116.016C131.528 116.752 130.872 117.472 130.072 118.176C129.304 118.88 128.52 119.504 127.72 120.048C126.92 120.592 126.248 120.992 125.704 121.248C125.576 121.28 125.448 121.328 125.32 121.392C125.192 121.424 125.048 121.44 124.888 121.44C124.376 121.44 124.12 121.216 124.12 120.768C124.12 120.512 124.232 120.144 124.456 119.664C124.68 119.152 124.904 118.608 125.128 118.032C125.352 117.424 125.464 116.864 125.464 116.352C125.464 115.808 125.288 115.424 124.936 115.2C124.616 114.944 124.216 114.784 123.736 114.72C123.288 114.624 122.856 114.56 122.44 114.528C122.088 114.464 121.72 114.432 121.336 114.432C120.984 114.432 120.632 114.432 120.28 114.432C118.52 114.432 116.76 114.512 115 114.672C113.24 114.832 111.48 114.992 109.72 115.152L109.768 112.272C111.592 112.112 113.416 112 115.24 111.936C117.096 111.84 118.952 111.792 120.808 111.792C122.632 111.792 124.44 111.856 126.232 111.984C128.024 112.08 129.8 112.32 131.56 112.704C131.72 112.736 131.848 112.784 131.944 112.848C132.072 112.88 132.2 112.928 132.328 112.992C132.648 113.184 132.808 113.488 132.808 113.904ZM189.544 129.216C189.544 131.296 189.144 133.296 188.344 135.216C187.576 137.104 186.536 138.8 185.224 140.304C183.752 142 182.104 143.296 180.28 144.192C178.456 145.088 176.392 145.536 174.088 145.536C171.752 145.536 169.72 145.056 167.992 144.096C166.264 143.136 165 141.744 164.2 139.92C163.56 138.448 163.24 136.768 163.24 134.88C163.24 133.984 163.288 133.088 163.384 132.192C163.48 131.264 163.592 130.352 163.72 129.456C163.72 129.392 163.72 129.312 163.72 129.216C163.752 129.12 163.768 129.056 163.768 129.024C163.832 128.704 163.848 128.48 163.816 128.352C163.816 128.192 163.736 128.112 163.576 128.112C163.064 128.112 162.616 128.208 162.232 128.4C161.848 128.592 161.496 128.768 161.176 128.928C160.824 129.12 160.36 129.504 159.784 130.08C159.24 130.656 158.664 131.312 158.056 132.048C157.48 132.784 156.92 133.536 156.376 134.304C156.152 134.752 155.848 135.328 155.464 136.032C155.112 136.704 154.744 137.392 154.36 138.096C154.008 138.8 153.704 139.424 153.448 139.968C153.192 140.48 153.032 140.8 152.968 140.928C152.776 141.536 152.52 141.936 152.2 142.128C151.88 142.32 151.512 142.416 151.096 142.416C150.776 142.416 150.392 142.256 149.944 141.936C149.528 141.584 149.16 141.12 148.84 140.544C148.52 140 148.328 139.488 148.264 139.008C148.232 138.528 148.232 138.128 148.264 137.808C148.264 137.52 148.344 137.216 148.504 136.896C148.696 136.576 148.888 136.32 149.08 136.128C149.688 135.552 150.184 135.088 150.568 134.736C150.984 134.352 151.336 133.968 151.624 133.584C151.944 133.2 152.264 132.704 152.584 132.096L157.432 123.024C158.296 121.392 159.208 119.744 160.168 118.08C161.128 116.384 162.04 114.72 162.904 113.088C163.384 112.224 163.864 111.344 164.344 110.448C164.824 109.552 165.272 108.656 165.688 107.76C166.552 107.984 167.432 108.208 168.328 108.432C169.256 108.656 170.152 108.912 171.016 109.2C171.176 109.232 171.352 109.296 171.544 109.392C171.736 109.488 171.832 109.648 171.832 109.872C171.832 110.032 171.768 110.192 171.64 110.352C171.544 110.512 171.464 110.656 171.4 110.784C170.888 111.52 170.344 112.24 169.768 112.944C169.224 113.648 168.68 114.368 168.136 115.104C166.536 117.248 164.904 119.424 163.24 121.632C161.608 123.84 160.088 126.08 158.68 128.352C159.224 127.968 159.944 127.568 160.84 127.152C161.736 126.736 162.664 126.4 163.624 126.144C164.584 125.856 165.4 125.712 166.072 125.712C166.52 125.712 166.84 125.792 167.032 125.952C167.224 126.112 167.272 126.432 167.176 126.912C167.016 127.808 166.888 128.56 166.792 129.168C166.728 129.744 166.696 130.032 166.696 130.032C166.536 130.992 166.456 131.84 166.456 132.576C166.456 133.312 166.456 133.744 166.456 133.872C166.616 135.92 167.384 137.616 168.76 138.96C170.136 140.272 171.848 140.928 173.896 140.928C175.752 140.928 177.544 140.544 179.272 139.776C181.032 138.976 182.52 137.984 183.736 136.8C185.24 135.328 186.312 133.568 186.952 131.52C186.152 131.52 185.368 131.296 184.6 130.848C183.864 130.4 183.512 129.712 183.544 128.784C183.576 128.048 183.912 127.424 184.552 126.912C185.192 126.368 185.896 126.096 186.664 126.096C187.464 126.128 188.136 126.48 188.68 127.152C189.256 127.792 189.544 128.48 189.544 129.216ZM220.6 136.56C220.28 136.496 219.96 136.464 219.64 136.464C219.32 136.464 219 136.464 218.68 136.464C217.912 136.464 217.128 136.64 216.328 136.992C215.528 137.344 214.856 137.84 214.312 138.48C213.768 139.088 213.496 139.824 213.496 140.688C213.496 141.744 213.816 142.528 214.456 143.04C215.096 143.552 215.912 143.808 216.904 143.808C218.024 143.808 218.84 143.52 219.352 142.944C219.864 142.368 220.2 141.648 220.36 140.784C220.52 139.92 220.6 139.056 220.6 138.192V136.56ZM235.144 142.032C235.144 142.704 234.872 143.312 234.328 143.856C233.816 144.4 233.224 144.672 232.552 144.672C232.04 144.672 231.48 144.528 230.872 144.24C230.264 143.952 229.96 143.504 229.96 142.896C229.96 142.416 230.072 142 230.296 141.648C230.52 141.296 230.824 140.976 231.208 140.688C230.824 140.208 230.28 139.744 229.576 139.296C228.872 138.816 228.136 138.4 227.368 138.048C226.6 137.696 225.896 137.488 225.256 137.424V140.208C225.256 142.48 224.52 144.224 223.048 145.44C221.576 146.688 219.752 147.312 217.576 147.312C216.392 147.312 215.208 147.072 214.024 146.592C212.84 146.144 211.848 145.456 211.048 144.528C210.248 143.632 209.848 142.512 209.848 141.168C209.848 139.856 210.2 138.752 210.904 137.856C211.608 136.96 212.504 136.256 213.592 135.744C214.712 135.2 215.88 134.832 217.096 134.64C218.344 134.448 219.496 134.4 220.552 134.496V127.296H225.256L225.208 134.928C226.04 135.088 227.016 135.36 228.136 135.744C229.256 136.096 230.344 136.576 231.4 137.184C232.488 137.76 233.384 138.448 234.088 139.248C234.792 140.048 235.144 140.976 235.144 142.032ZM233.272 121.008C233.272 121.488 233.144 122.032 232.888 122.64C232.632 123.248 232.376 123.76 232.12 124.176C231.8 124.688 231.368 125.2 230.824 125.712C230.28 126.192 229.672 126.432 229 126.432C228.776 126.432 228.6 126.368 228.472 126.24C228.376 126.08 228.28 125.92 228.184 125.76C227.96 125.312 227.752 124.832 227.56 124.32C227.4 123.808 227.224 123.296 227.032 122.784C226.712 122.56 226.344 122.416 225.928 122.352C225.544 122.256 225.144 122.208 224.728 122.208C222.936 122.208 221.096 122.512 219.208 123.12C217.352 123.696 215.528 124.48 213.736 125.472C211.944 126.464 210.264 127.584 208.696 128.832C207.128 130.048 205.768 131.312 204.616 132.624C204.008 133.328 203.416 134.048 202.84 134.784C202.264 135.52 201.64 136.192 200.968 136.8C200.776 136.992 200.536 137.184 200.248 137.376C199.992 137.536 199.72 137.616 199.432 137.616C199.016 137.616 198.664 137.312 198.376 136.704C198.088 136.096 197.864 135.44 197.704 134.736C197.544 134.032 197.464 133.52 197.464 133.2C197.464 132.848 197.56 132.576 197.752 132.384C197.976 132.192 198.216 132 198.472 131.808C198.984 131.456 199.496 131.104 200.008 130.752C200.552 130.368 201.08 130.016 201.592 129.696C201.816 129.568 202.04 129.44 202.264 129.312C202.488 129.184 202.696 129.024 202.888 128.832C203.112 128.64 203.304 128.416 203.464 128.16C203.656 127.904 203.832 127.648 203.992 127.392C204.728 126.272 205.448 124.976 206.152 123.504C206.888 122 207.528 120.48 208.072 118.944C208.648 117.376 209.048 115.936 209.272 114.624L200.488 114.912V112.848L209.752 112.608C209.912 111.488 210.088 110.368 210.28 109.248C210.472 108.096 210.584 106.944 210.616 105.792L216.52 106.704C216.424 107.696 216.248 108.672 215.992 109.632C215.736 110.592 215.48 111.552 215.224 112.512L220.408 112.272C220.472 111.44 220.776 110.688 221.32 110.016C221.864 109.312 222.584 108.96 223.48 108.96C224.184 108.96 224.856 109.2 225.496 109.68C226.168 110.128 226.504 110.736 226.504 111.504C226.504 112.4 226.2 113.072 225.592 113.52C224.984 113.936 224.264 114.16 223.432 114.192L214.408 114.528C213.736 116.608 212.792 118.736 211.576 120.912C210.392 123.088 209.176 125.072 207.928 126.864C210.072 125.424 212.136 124.128 214.12 122.976C216.136 121.824 218.232 120.912 220.408 120.24C222.584 119.568 225 119.232 227.656 119.232C227.912 119.232 228.344 119.264 228.952 119.328C229.56 119.36 230.2 119.44 230.872 119.568C231.544 119.696 232.104 119.888 232.552 120.144C233.032 120.368 233.272 120.656 233.272 121.008ZM279.688 136.848C279.688 137.456 279.448 138.064 278.968 138.672C278.52 139.248 277.976 139.776 277.336 140.256C276.728 140.704 276.184 141.072 275.704 141.36C274.712 141.904 273.512 142.432 272.104 142.944C270.728 143.456 269.32 143.872 267.88 144.192C266.472 144.544 265.192 144.72 264.04 144.72C262.696 144.72 261.272 144.576 259.768 144.288C258.264 144.032 256.84 143.584 255.496 142.944C254.184 142.272 253.112 141.392 252.28 140.304C251.448 139.184 251.032 137.792 251.032 136.128C251.032 134.688 251.4 133.36 252.136 132.144C252.904 130.928 253.88 129.824 255.064 128.832C256.248 127.84 257.496 126.96 258.808 126.192C260.12 125.424 261.336 124.768 262.456 124.224C261.88 123.776 261.416 123.248 261.064 122.64C260.712 122 260.44 121.328 260.248 120.624C260.12 120.176 260.008 119.728 259.912 119.28C259.848 118.832 259.784 118.384 259.72 117.936C259.496 116.176 259.288 114.416 259.096 112.656C258.936 110.896 258.776 109.136 258.616 107.376L264.376 107.04C264.44 108.416 264.488 109.792 264.52 111.168C264.552 112.544 264.6 113.936 264.664 115.344C264.696 116.048 264.728 116.768 264.76 117.504C264.792 118.208 264.872 118.928 265 119.664C265.032 119.824 265.096 120.096 265.192 120.48C265.32 120.832 265.48 121.168 265.672 121.488C265.864 121.776 266.072 121.92 266.296 121.92C266.488 121.92 266.808 121.792 267.256 121.536C267.704 121.248 268.152 120.976 268.6 120.72C269.08 120.464 269.464 120.336 269.752 120.336C270.04 120.336 270.248 120.384 270.376 120.48C270.536 120.576 270.728 120.72 270.952 120.912C271.176 121.104 271.464 121.408 271.816 121.824C272.168 122.208 272.472 122.624 272.728 123.072C273.016 123.488 273.16 123.856 273.16 124.176C273.16 124.688 272.968 125.024 272.584 125.184C272.232 125.344 271.832 125.424 271.384 125.424C271.16 125.424 270.936 125.424 270.712 125.424C270.52 125.392 270.312 125.376 270.088 125.376C268.776 125.376 267.304 125.584 265.672 126C264.04 126.416 262.472 127.04 260.968 127.872C259.496 128.704 258.264 129.728 257.272 130.944C256.312 132.128 255.832 133.504 255.832 135.072C255.832 136.544 256.296 137.76 257.224 138.72C258.152 139.648 259.272 140.336 260.584 140.784C261.928 141.232 263.224 141.456 264.472 141.456C266.264 141.456 268.152 141.232 270.136 140.784C272.152 140.336 273.976 139.728 275.608 138.96C274.584 138.608 274.072 137.872 274.072 136.752C274.072 136.08 274.376 135.52 274.984 135.072C275.624 134.592 276.264 134.352 276.904 134.352C277.608 134.352 278.248 134.592 278.824 135.072C279.4 135.52 279.688 136.112 279.688 136.848ZM326.344 140.256C326.344 140.896 326.104 141.472 325.624 141.984C325.176 142.496 324.632 142.944 323.992 143.328C323.352 143.68 322.776 143.968 322.264 144.192C320.792 144.736 319.304 145.184 317.8 145.536C316.296 145.888 314.76 146.064 313.192 146.064C311.304 146.064 309.448 145.744 307.624 145.104C305.8 144.464 304.232 143.488 302.92 142.176C301.64 140.864 300.792 139.216 300.376 137.232C300.536 137.136 300.808 136.976 301.192 136.752C301.608 136.496 302.056 136.224 302.536 135.936C303.016 135.648 303.448 135.408 303.832 135.216C304.216 135.024 304.456 134.928 304.552 134.928C304.84 134.928 305 135.04 305.032 135.264C305.096 135.488 305.176 135.728 305.272 135.984C305.368 136.208 305.448 136.448 305.512 136.704C306.216 138.624 307.384 140.208 309.016 141.456C310.68 142.672 312.536 143.28 314.584 143.28C315.8 143.28 316.984 143.184 318.136 142.992C319.32 142.768 320.472 142.496 321.592 142.176C321.368 141.952 321.16 141.68 320.968 141.36C320.808 141.04 320.728 140.704 320.728 140.352C320.728 139.904 320.888 139.488 321.208 139.104C321.56 138.688 321.96 138.352 322.408 138.096C322.888 137.84 323.336 137.712 323.752 137.712C324.392 137.712 324.984 137.984 325.528 138.528C326.072 139.04 326.344 139.616 326.344 140.256ZM329.224 122.064C329.224 122.768 328.984 123.328 328.504 123.744C328.024 124.128 327.464 124.4 326.824 124.56C325.512 124.912 324.168 125.2 322.792 125.424C321.416 125.616 320.04 125.76 318.664 125.856C318.856 126.432 319.096 127.136 319.384 127.968C319.704 128.8 319.992 129.632 320.248 130.464C320.504 131.264 320.632 131.952 320.632 132.528C320.632 133.648 320.264 134.448 319.528 134.928C318.824 135.376 317.96 135.6 316.936 135.6C316.36 135.6 315.688 135.488 314.92 135.264C314.152 135.04 313.4 134.752 312.664 134.4C311.928 134.048 311.32 133.696 310.84 133.344C310.744 133.28 310.616 133.184 310.456 133.056C310.296 132.928 310.216 132.8 310.216 132.672C310.216 132.512 310.328 132.432 310.552 132.432C310.648 132.432 310.712 132.448 310.744 132.48C311.32 132.608 311.912 132.736 312.52 132.864C313.16 132.992 313.784 133.056 314.392 133.056C314.712 133.056 314.968 132.96 315.16 132.768C315.384 132.576 315.496 132.32 315.496 132C315.496 131.488 315.4 130.896 315.208 130.224C315.016 129.552 314.792 128.88 314.536 128.208C314.312 127.504 314.12 126.912 313.96 126.432C312.872 126.56 311.784 126.672 310.696 126.768C309.64 126.864 308.568 126.96 307.48 127.056C306.904 127.12 306.312 127.2 305.704 127.296C305.128 127.36 304.568 127.392 304.024 127.392C303.864 127.392 303.64 127.248 303.352 126.96C303.096 126.672 302.872 126.368 302.68 126.048C302.488 125.696 302.392 125.44 302.392 125.28C302.392 125.024 302.472 124.896 302.632 124.896C302.792 124.896 302.936 124.896 303.064 124.896C304.76 124.896 306.456 124.848 308.152 124.752C309.848 124.656 311.544 124.544 313.24 124.416C312.92 123.392 312.552 122.368 312.136 121.344C311.752 120.288 311.368 119.264 310.984 118.272C308.712 118.496 306.424 118.688 304.12 118.848C301.816 119.008 299.528 119.168 297.256 119.328C297.192 119.328 297.128 119.344 297.064 119.376C297.032 119.376 296.984 119.376 296.92 119.376C296.632 119.376 296.456 119.248 296.392 118.992C296.36 118.928 296.312 118.736 296.248 118.416C296.184 118.096 296.12 117.776 296.056 117.456C296.024 117.136 296.008 116.944 296.008 116.88C296.008 116.592 296.152 116.448 296.44 116.448C296.888 116.448 297.352 116.48 297.832 116.544C298.312 116.608 298.792 116.64 299.272 116.64C301.064 116.64 302.856 116.592 304.648 116.496C306.472 116.4 308.28 116.304 310.072 116.208C309.656 114.928 309.208 113.664 308.728 112.416C308.28 111.168 307.8 109.936 307.288 108.72L312.808 107.712C313.256 109.024 313.704 110.352 314.152 111.696C314.6 113.008 315 114.352 315.352 115.728C316.088 115.6 316.824 115.472 317.56 115.344C318.296 115.184 319.032 115.04 319.768 114.912C319.672 114.624 319.624 114.336 319.624 114.048C319.624 113.312 319.928 112.704 320.536 112.224C321.144 111.712 321.8 111.456 322.504 111.456C323.24 111.456 323.88 111.696 324.424 112.176C325 112.656 325.288 113.264 325.288 114C325.288 114.704 325.096 115.232 324.712 115.584C324.328 115.936 323.816 116.208 323.176 116.4C322.024 116.816 320.84 117.12 319.624 117.312C318.408 117.472 317.192 117.632 315.976 117.792L317.992 123.792C318.952 123.664 319.912 123.52 320.872 123.36C321.832 123.2 322.776 123.056 323.704 122.928C323.576 122.672 323.512 122.464 323.512 122.304C323.512 121.568 323.8 120.928 324.376 120.384C324.952 119.808 325.608 119.52 326.344 119.52C326.984 119.52 327.624 119.776 328.264 120.288C328.904 120.768 329.224 121.36 329.224 122.064Z" fill="#524FFF"/>
<path d="M371.116 79.012C371.116 79.708 370.852 80.296 370.324 80.776C369.796 81.232 369.124 81.616 368.308 81.928C367.492 82.216 366.616 82.444 365.68 82.612C364.768 82.78 363.904 82.888 363.088 82.936C362.272 83.008 361.624 83.044 361.144 83.044C360.328 83.044 359.44 82.96 358.48 82.792C357.544 82.624 356.644 82.348 355.78 81.964C354.916 81.556 354.208 81.016 353.656 80.344C353.104 79.672 352.828 78.82 352.828 77.788C352.828 77.212 352.996 76.6 353.332 75.952C353.668 75.28 354.1 74.644 354.628 74.044C355.156 73.42 355.708 72.868 356.284 72.388C356.884 71.908 357.436 71.548 357.94 71.308C358.108 71.212 358.276 71.164 358.444 71.164C358.612 71.164 358.756 71.212 358.876 71.308C358.996 71.404 359.056 71.536 359.056 71.704C359.056 71.92 358.9 72.172 358.588 72.46C358.3 72.724 357.964 73.06 357.58 73.468C357.196 73.852 356.848 74.344 356.536 74.944C356.248 75.52 356.104 76.24 356.104 77.104C356.104 77.824 356.32 78.436 356.752 78.94C357.208 79.42 357.772 79.816 358.444 80.128C359.116 80.416 359.812 80.632 360.532 80.776C361.252 80.896 361.9 80.956 362.476 80.956C363.388 80.956 364.312 80.908 365.248 80.812C366.184 80.716 367.084 80.524 367.948 80.236C367.66 80.164 367.42 79.996 367.228 79.732C367.036 79.444 366.94 79.156 366.94 78.868C366.94 78.388 367.18 77.992 367.66 77.68C368.14 77.344 368.608 77.176 369.064 77.176C369.544 77.176 370 77.356 370.432 77.716C370.888 78.076 371.116 78.508 371.116 79.012ZM375.04 66.376C375.04 66.736 374.956 66.976 374.788 67.096C374.62 67.192 374.392 67.276 374.104 67.348C372.472 67.732 370.936 68.092 369.496 68.428C368.056 68.74 366.52 69.208 364.888 69.832C364.144 70.12 363.664 70.432 363.448 70.768C363.232 71.08 363.124 71.632 363.124 72.424V74.8C363.124 75.256 362.968 75.616 362.656 75.88C362.344 76.144 361.972 76.336 361.54 76.456C361.132 76.576 360.736 76.636 360.352 76.636C360.04 76.636 359.812 76.54 359.668 76.348C359.548 76.132 359.488 75.88 359.488 75.592C359.488 75.496 359.488 75.412 359.488 75.34C359.512 75.268 359.524 75.184 359.524 75.088C359.644 74.248 359.716 73.408 359.74 72.568C359.788 71.728 359.812 70.888 359.812 70.048C359.812 69.592 359.716 69.124 359.524 68.644C359.332 68.14 359.056 67.708 358.696 67.348C358.36 66.988 357.928 66.808 357.4 66.808C356.584 66.808 355.852 66.976 355.204 67.312C354.58 67.648 354.016 68.068 353.512 68.572C353.032 69.052 352.6 69.544 352.216 70.048C351.832 70.552 351.46 70.972 351.1 71.308C350.764 71.644 350.428 71.812 350.092 71.812C349.804 71.812 349.576 71.68 349.408 71.416C349.24 71.128 349.12 70.816 349.048 70.48C348.976 70.144 348.94 69.868 348.94 69.652C348.94 69.364 349.048 69.112 349.264 68.896C349.504 68.68 349.744 68.512 349.984 68.392C350.368 68.2 350.752 67.996 351.136 67.78C351.52 67.54 351.88 67.288 352.216 67.024C352.696 66.616 353.188 66.028 353.692 65.26C354.196 64.468 354.652 63.652 355.06 62.812C355.468 61.948 355.756 61.228 355.924 60.652H349.516V59.104H356.284C356.452 58.336 356.584 57.568 356.68 56.8C356.776 56.008 356.872 55.216 356.968 54.424C357.592 54.568 358.216 54.7 358.84 54.82C359.488 54.916 360.112 55.06 360.712 55.252C360.832 55.276 360.952 55.324 361.072 55.396C361.216 55.444 361.288 55.552 361.288 55.72C361.288 55.96 361.216 56.308 361.072 56.764C360.952 57.196 360.808 57.628 360.64 58.06C360.472 58.492 360.34 58.84 360.244 59.104H365.536C365.536 58.528 365.728 58.048 366.112 57.664C366.52 57.256 367.024 57.052 367.624 57.052C368.104 57.052 368.56 57.232 368.992 57.592C369.448 57.928 369.676 58.348 369.676 58.852C369.676 59.524 369.448 59.992 368.992 60.256C368.56 60.52 368.044 60.652 367.444 60.652H359.668C359.164 61.732 358.528 62.692 357.76 63.532C356.992 64.348 356.152 65.14 355.24 65.908C355.36 65.884 355.468 65.872 355.564 65.872C355.66 65.848 355.756 65.824 355.852 65.8C356.26 65.68 356.656 65.584 357.04 65.512C357.448 65.416 357.856 65.368 358.264 65.368C359.44 65.368 360.46 65.584 361.324 66.016C362.188 66.424 362.752 67.252 363.016 68.5C364.36 67.78 365.704 67.084 367.048 66.412C368.392 65.74 369.724 65.044 371.044 64.324C371.14 64.276 371.224 64.228 371.296 64.18C371.392 64.108 371.488 64.06 371.584 64.036C371.92 63.868 372.244 63.784 372.556 63.784C372.7 63.784 372.904 63.892 373.168 64.108C373.456 64.3 373.744 64.552 374.032 64.864C374.32 65.152 374.56 65.44 374.752 65.728C374.944 66.016 375.04 66.232 375.04 66.376ZM403.876 55.54H390.232V59.356H398.764C398.764 58.948 398.944 58.6 399.304 58.312C399.688 58 400.072 57.844 400.456 57.844C400.936 57.844 401.368 58 401.752 58.312C402.16 58.624 402.364 59.032 402.364 59.536C402.364 59.992 402.172 60.376 401.788 60.688C401.428 60.976 401.032 61.12 400.6 61.12H390.232V64.936H398.692C398.692 64.528 398.884 64.18 399.268 63.892C399.652 63.58 400.036 63.424 400.42 63.424C400.9 63.424 401.332 63.58 401.716 63.892C402.124 64.18 402.328 64.576 402.328 65.08C402.328 65.536 402.136 65.92 401.752 66.232C401.392 66.52 400.996 66.664 400.564 66.664H390.232V70.948H400.204C401.5 70.948 402.436 70.516 403.012 69.652C403.588 68.788 403.876 67.768 403.876 66.592V55.54ZM414.532 79.768C414.532 80.512 414.232 81.184 413.632 81.784C413.056 82.36 412.48 82.816 411.904 83.152C410.704 83.824 409.432 84.304 408.088 84.592C406.744 84.88 405.388 85.024 404.02 85.024C402.748 85.024 401.632 84.88 400.672 84.592C399.712 84.328 398.968 83.812 398.44 83.044C397.912 82.3 397.648 81.208 397.648 79.768C397.648 78.592 397.648 77.416 397.648 76.24C397.648 75.064 397.636 73.888 397.612 72.712H392.536L395.74 74.044C394.852 76.66 393.448 78.748 391.528 80.308C389.632 81.868 387.412 83.104 384.868 84.016C384.436 84.16 383.92 84.316 383.32 84.484C382.72 84.652 382.108 84.796 381.484 84.916C380.884 85.036 380.356 85.096 379.9 85.096C379.804 85.096 379.696 85.072 379.576 85.024C379.456 84.976 379.396 84.892 379.396 84.772C379.396 84.652 379.468 84.568 379.612 84.52C380.212 84.256 380.8 83.98 381.376 83.692C381.976 83.428 382.552 83.14 383.104 82.828C387.064 80.548 389.716 77.176 391.06 72.712L385.984 72.676V53.668H408.376V66.484C408.376 68.668 407.836 70.252 406.756 71.236C405.676 72.196 404.068 72.676 401.932 72.676V79.732C401.932 80.836 402.244 81.58 402.868 81.964C403.516 82.348 404.332 82.54 405.316 82.54C406.228 82.54 407.212 82.456 408.268 82.288C409.324 82.12 410.26 81.844 411.076 81.46C410.74 81.316 410.488 81.076 410.32 80.74C410.152 80.38 410.068 80.02 410.068 79.66C410.068 79.108 410.344 78.652 410.896 78.292C411.448 77.932 411.976 77.752 412.48 77.752C413.008 77.752 413.476 77.956 413.884 78.364C414.316 78.748 414.532 79.216 414.532 79.768ZM444.196 58.312C444.196 58.552 444.064 58.78 443.8 58.996C443.536 59.188 443.308 59.344 443.116 59.464C442.972 59.56 442.816 59.644 442.648 59.716C442.504 59.788 442.348 59.86 442.18 59.932C440.836 60.604 439.516 61.42 438.22 62.38C436.948 63.316 435.772 64.312 434.692 65.368C433.732 66.28 432.892 67.324 432.172 68.5C431.452 69.676 431.092 70.948 431.092 72.316C431.092 73.876 431.488 75.292 432.28 76.564C433.096 77.812 434.14 78.856 435.412 79.696C436.684 80.512 438.028 81.1 439.444 81.46C439.492 80.836 439.708 80.308 440.092 79.876C440.5 79.444 441.028 79.228 441.676 79.228C442.228 79.228 442.708 79.408 443.116 79.768C443.548 80.104 443.764 80.56 443.764 81.136C443.764 81.784 443.512 82.252 443.008 82.54C442.504 82.828 441.976 82.972 441.424 82.972C440.272 82.972 439.036 82.864 437.716 82.648C436.396 82.456 435.196 82.168 434.116 81.784C432.844 81.304 431.656 80.656 430.552 79.84C429.472 79.024 428.608 78.04 427.96 76.888C427.312 75.736 426.988 74.44 426.988 73C426.988 71.752 427.252 70.54 427.78 69.364C428.308 68.188 428.992 67.072 429.832 66.016C430.696 64.936 431.596 63.916 432.532 62.956C433.492 61.996 434.38 61.12 435.196 60.328C433.012 60.808 430.816 61.252 428.608 61.66C426.424 62.068 424.228 62.44 422.02 62.776C421.708 62.824 421.384 62.896 421.048 62.992C420.712 63.064 420.376 63.1 420.04 63.1C419.848 63.1 419.716 62.992 419.644 62.776C419.524 62.44 419.428 62.104 419.356 61.768C419.284 61.408 419.2 61.06 419.104 60.724C421.672 60.604 424.216 60.388 426.736 60.076C429.256 59.74 431.788 59.416 434.332 59.104C434.74 59.056 435.172 59.008 435.628 58.96C436.108 58.912 436.54 58.816 436.924 58.672C437.524 58.432 437.992 58.096 438.328 57.664C438.664 57.232 439 56.836 439.336 56.476C439.672 56.116 440.104 55.936 440.632 55.936C440.848 55.936 441.136 56.008 441.496 56.152C441.88 56.272 442.24 56.416 442.576 56.584C442.936 56.752 443.2 56.908 443.368 57.052C443.632 57.244 443.836 57.424 443.98 57.592C444.124 57.736 444.196 57.976 444.196 58.312ZM473.5 71.596C473.452 71.932 473.332 72.316 473.14 72.748C472.948 73.18 472.768 73.564 472.6 73.9C472.12 74.884 471.484 75.892 470.692 76.924C469.9 77.932 468.976 78.784 467.92 79.48C466.888 80.152 465.772 80.488 464.572 80.488C463.252 80.488 462.148 80.236 461.26 79.732C460.372 79.228 459.652 78.544 459.1 77.68C458.572 76.816 458.164 75.856 457.876 74.8C457.612 73.744 457.408 72.664 457.264 71.56C457.144 70.432 457.048 69.364 456.976 68.356C456.88 67.036 456.796 65.716 456.724 64.396C456.676 63.076 456.64 61.756 456.616 60.436L461.008 60.256C461.032 62.296 461.068 64.336 461.116 66.376C461.164 68.416 461.284 70.444 461.476 72.46C461.548 73.204 461.692 73.996 461.908 74.836C462.148 75.652 462.52 76.36 463.024 76.96C463.528 77.536 464.248 77.824 465.184 77.824C466.312 77.824 467.332 77.5 468.244 76.852C469.156 76.204 469.96 75.412 470.656 74.476C471.352 73.54 471.952 72.64 472.456 71.776C472.528 71.656 472.6 71.536 472.672 71.416C472.768 71.296 472.9 71.236 473.068 71.236C473.164 71.236 473.248 71.284 473.32 71.38C473.416 71.452 473.476 71.524 473.5 71.596ZM483.256 72.388C483.256 72.772 483.16 73.18 482.968 73.612C482.8 74.044 482.548 74.416 482.212 74.728C481.876 75.016 481.492 75.16 481.06 75.16C480.676 75.16 480.244 75.016 479.764 74.728C479.308 74.44 479.08 74.068 479.08 73.612C479.08 73.06 479.308 72.64 479.764 72.352C480.244 72.064 480.724 71.908 481.204 71.884C480.796 70.9 480.172 69.88 479.332 68.824C478.492 67.768 477.568 66.796 476.56 65.908C475.552 64.996 474.58 64.276 473.644 63.748C473.548 63.7 473.428 63.64 473.284 63.568C473.14 63.496 473.068 63.388 473.068 63.244C473.068 63.196 473.224 63.064 473.536 62.848C473.872 62.608 474.268 62.344 474.724 62.056C475.18 61.744 475.6 61.468 475.984 61.228C476.368 60.964 476.608 60.796 476.704 60.724C477.88 61.612 478.96 62.68 479.944 63.928C480.952 65.152 481.756 66.484 482.356 67.924C482.956 69.364 483.256 70.852 483.256 72.388ZM516.196 58.312C516.196 58.552 516.064 58.78 515.8 58.996C515.536 59.188 515.308 59.344 515.116 59.464C514.972 59.56 514.816 59.644 514.648 59.716C514.504 59.788 514.348 59.86 514.18 59.932C512.836 60.604 511.516 61.42 510.22 62.38C508.948 63.316 507.772 64.312 506.692 65.368C505.732 66.28 504.892 67.324 504.172 68.5C503.452 69.676 503.092 70.948 503.092 72.316C503.092 73.876 503.488 75.292 504.28 76.564C505.096 77.812 506.14 78.856 507.412 79.696C508.684 80.512 510.028 81.1 511.444 81.46C511.492 80.836 511.708 80.308 512.092 79.876C512.5 79.444 513.028 79.228 513.676 79.228C514.228 79.228 514.708 79.408 515.116 79.768C515.548 80.104 515.764 80.56 515.764 81.136C515.764 81.784 515.512 82.252 515.008 82.54C514.504 82.828 513.976 82.972 513.424 82.972C512.272 82.972 511.036 82.864 509.716 82.648C508.396 82.456 507.196 82.168 506.116 81.784C504.844 81.304 503.656 80.656 502.552 79.84C501.472 79.024 500.608 78.04 499.96 76.888C499.312 75.736 498.988 74.44 498.988 73C498.988 71.752 499.252 70.54 499.78 69.364C500.308 68.188 500.992 67.072 501.832 66.016C502.696 64.936 503.596 63.916 504.532 62.956C505.492 61.996 506.38 61.12 507.196 60.328C505.012 60.808 502.816 61.252 500.608 61.66C498.424 62.068 496.228 62.44 494.02 62.776C493.708 62.824 493.384 62.896 493.048 62.992C492.712 63.064 492.376 63.1 492.04 63.1C491.848 63.1 491.716 62.992 491.644 62.776C491.524 62.44 491.428 62.104 491.356 61.768C491.284 61.408 491.2 61.06 491.104 60.724C493.672 60.604 496.216 60.388 498.736 60.076C501.256 59.74 503.788 59.416 506.332 59.104C506.74 59.056 507.172 59.008 507.628 58.96C508.108 58.912 508.54 58.816 508.924 58.672C509.524 58.432 509.992 58.096 510.328 57.664C510.664 57.232 511 56.836 511.336 56.476C511.672 56.116 512.104 55.936 512.632 55.936C512.848 55.936 513.136 56.008 513.496 56.152C513.88 56.272 514.24 56.416 514.576 56.584C514.936 56.752 515.2 56.908 515.368 57.052C515.632 57.244 515.836 57.424 515.98 57.592C516.124 57.736 516.196 57.976 516.196 58.312ZM359.272 131.808C358.184 130.848 357.464 129.664 357.112 128.256C356.76 126.848 356.552 125.456 356.488 124.08C355.144 124.88 353.88 125.888 352.696 127.104C351.512 128.288 350.552 129.616 349.816 131.088C349.08 132.56 348.712 134.128 348.712 135.792C348.712 136.336 348.872 136.928 349.192 137.568C349.544 138.208 350.056 138.528 350.728 138.528C351.208 138.528 351.848 138.256 352.648 137.712C353.448 137.168 354.28 136.512 355.144 135.744C356.04 134.944 356.856 134.192 357.592 133.488C358.36 132.752 358.92 132.192 359.272 131.808ZM378.424 131.472C378.424 134.608 377.56 137.328 375.832 139.632C374.136 141.936 371.944 143.792 369.256 145.2C368.264 145.712 367.064 146.192 365.656 146.64C364.248 147.12 362.984 147.36 361.864 147.36C361.288 147.36 360.76 147.184 360.28 146.832C359.832 146.48 359.608 146 359.608 145.392C359.608 144.816 359.832 144.32 360.28 143.904C360.76 143.488 361.288 143.28 361.864 143.28C362.408 143.28 362.936 143.472 363.448 143.856C363.96 144.208 364.216 144.672 364.216 145.248C366.168 144.608 367.768 143.536 369.016 142.032C370.264 140.528 371.192 138.816 371.8 136.896C372.408 134.976 372.712 133.072 372.712 131.184C372.712 129.616 372.248 128.144 371.32 126.768C370.392 125.36 369.224 124.336 367.816 123.696C367.112 123.344 366.328 123.12 365.464 123.024C364.6 122.896 363.752 122.832 362.92 122.832C362.344 122.832 361.736 122.88 361.096 122.976C361 124.448 360.952 125.936 360.952 127.44C360.952 127.792 360.968 128.16 361 128.544C361.032 128.896 361.08 129.248 361.144 129.6H361.192C361.64 129.056 362.04 128.512 362.392 127.968C362.776 127.392 363.144 126.816 363.496 126.24L367.672 128.976C365.72 131.248 363.576 133.328 361.24 135.216C358.904 137.072 356.376 138.656 353.656 139.968C352.92 140.288 352.136 140.576 351.304 140.832C350.504 141.088 349.688 141.216 348.856 141.216C347.448 141.216 346.328 140.768 345.496 139.872C344.696 138.976 344.296 137.84 344.296 136.464C344.296 134.064 344.856 131.904 345.976 129.984C347.128 128.064 348.632 126.432 350.488 125.088C352.344 123.744 354.344 122.72 356.488 122.016C356.488 120.928 356.472 119.824 356.44 118.704C356.408 117.584 356.408 116.48 356.44 115.392L346.312 115.632V113.616L356.44 113.376C356.44 112.448 356.44 111.504 356.44 110.544C356.472 109.584 356.504 108.64 356.536 107.712H361.96C361.864 108.608 361.784 109.52 361.72 110.448C361.688 111.376 361.64 112.304 361.576 113.232L367.816 112.8C367.752 112.544 367.72 112.336 367.72 112.176C367.72 111.376 368.024 110.688 368.632 110.112C369.24 109.536 369.864 109.248 370.504 109.248C371.56 109.248 372.344 109.52 372.856 110.064C373.4 110.608 373.672 111.296 373.672 112.128C373.672 112.928 373.368 113.552 372.76 114C372.152 114.416 371.48 114.656 370.744 114.72L361.48 115.2C361.448 116.192 361.4 117.184 361.336 118.176C361.272 119.136 361.208 120.112 361.144 121.104C361.592 121.04 362.04 120.976 362.488 120.912C362.936 120.848 363.368 120.816 363.784 120.816C365 120.816 366.296 120.896 367.672 121.056C369.08 121.184 370.376 121.456 371.56 121.872C373.64 122.672 375.304 123.92 376.552 125.616C377.8 127.28 378.424 129.232 378.424 131.472ZM420.376 117.408C420.376 120 420.312 122.448 420.184 124.752C420.088 127.056 419.784 129.248 419.272 131.328C418.792 133.376 417.976 135.376 416.824 137.328C415.704 139.28 414.12 141.2 412.072 143.088C411.56 143.568 410.872 144.064 410.008 144.576C409.176 145.12 408.264 145.616 407.272 146.064C406.28 146.512 405.304 146.88 404.344 147.168C403.384 147.456 402.552 147.6 401.848 147.6C401.048 147.6 400.344 147.408 399.736 147.024C399.16 146.672 398.872 146.048 398.872 145.152C398.872 144.32 399.208 143.616 399.88 143.04C400.552 142.464 401.288 142.176 402.088 142.176C402.792 142.176 403.416 142.448 403.96 142.992C404.536 143.504 404.904 144.08 405.064 144.72C405.896 144.368 406.744 143.84 407.608 143.136C408.472 142.4 409.272 141.6 410.008 140.736C410.744 139.84 411.304 139.008 411.688 138.24C412.616 136.416 413.272 134.544 413.656 132.624C414.072 130.672 414.312 128.688 414.376 126.672C414.472 124.656 414.52 122.656 414.52 120.672C414.52 120.128 414.504 119.376 414.472 118.416C414.44 117.456 414.376 116.448 414.28 115.392C414.216 114.336 414.088 113.376 413.896 112.512C413.736 111.616 413.512 110.96 413.224 110.544C413.096 110.384 412.984 110.256 412.888 110.16C412.792 110.064 412.744 109.904 412.744 109.68C412.744 109.52 412.808 109.408 412.936 109.344C413.096 109.28 413.24 109.248 413.368 109.248C413.688 109.248 414.2 109.296 414.904 109.392C415.64 109.456 416.36 109.552 417.064 109.68C417.768 109.776 418.264 109.888 418.552 110.016C419.096 110.208 419.416 110.4 419.512 110.592C419.64 110.784 419.768 111.152 419.896 111.696C420.056 112.56 420.168 113.504 420.232 114.528C420.328 115.552 420.376 116.512 420.376 117.408ZM410.776 117.84C410.776 117.968 410.664 118.256 410.44 118.704C410.216 119.152 410.072 119.456 410.008 119.616C409.784 120.096 409.56 120.576 409.336 121.056C409.144 121.536 408.92 122 408.664 122.448C408.088 123.472 407.448 124.56 406.744 125.712C406.04 126.832 405.208 127.792 404.248 128.592C403.288 129.392 402.12 129.792 400.744 129.792C399.688 129.792 398.856 129.536 398.248 129.024C397.672 128.512 397.24 127.856 396.952 127.056C396.696 126.224 396.536 125.36 396.472 124.464C396.408 123.568 396.376 122.736 396.376 121.968C396.376 120.496 396.408 119.04 396.472 117.6C396.536 116.16 396.632 114.704 396.76 113.232L402.04 113.616C401.784 115.44 401.576 117.264 401.416 119.088C401.256 120.912 401.176 122.752 401.176 124.608C401.176 124.96 401.256 125.408 401.416 125.952C401.576 126.496 401.896 126.768 402.376 126.768C402.696 126.768 403.08 126.608 403.528 126.288C403.976 125.968 404.312 125.696 404.536 125.472C405.304 124.736 406.024 123.76 406.696 122.544C407.368 121.328 407.96 120.24 408.472 119.28C408.632 118.992 408.776 118.704 408.904 118.416C409.064 118.096 409.24 117.808 409.432 117.552C409.592 117.296 409.784 117.168 410.008 117.168C410.168 117.168 410.328 117.232 410.488 117.36C410.68 117.488 410.776 117.648 410.776 117.84ZM475.48 114C475.48 114.8 475.192 115.456 474.616 115.968C474.072 116.48 473.4 116.736 472.6 116.736H459.64V122.592H465.688C465.72 121.76 465.992 120.992 466.504 120.288C467.016 119.584 467.72 119.232 468.616 119.232C469.448 119.232 470.2 119.488 470.872 120C471.576 120.512 471.928 121.232 471.928 122.16C471.928 123.056 471.608 123.712 470.968 124.128C470.36 124.544 469.64 124.752 468.808 124.752H459.64V131.376C460.952 131.504 462.312 131.824 463.72 132.336C465.16 132.816 466.44 133.376 467.56 134.016C468.104 134.304 468.696 134.688 469.336 135.168C469.976 135.648 470.584 136.16 471.16 136.704C471.736 137.248 472.152 137.792 472.408 138.336C472.664 138.752 472.808 139.152 472.84 139.536C472.904 139.92 472.936 140.352 472.936 140.832C472.936 141.536 472.616 142.128 471.976 142.608C471.336 143.056 470.696 143.28 470.056 143.28C469.512 143.28 468.968 143.088 468.424 142.704C467.88 142.288 467.608 141.776 467.608 141.168C467.608 140.528 467.784 139.984 468.136 139.536C468.52 139.056 469.032 138.768 469.672 138.672C468.744 137.84 467.672 137.088 466.456 136.416C465.272 135.712 464.088 135.152 462.904 134.736C462.392 134.544 461.848 134.4 461.272 134.304C460.728 134.208 460.184 134.096 459.64 133.968V136.896C459.64 139.648 458.856 141.68 457.288 142.992C455.752 144.304 453.656 144.96 451 144.96C450.04 144.96 449.032 144.832 447.976 144.576C446.952 144.32 445.976 143.936 445.048 143.424C444.152 142.912 443.416 142.24 442.84 141.408C442.296 140.576 442.024 139.584 442.024 138.432C442.024 137.216 442.328 136.176 442.936 135.312C443.576 134.416 444.392 133.696 445.384 133.152C446.408 132.576 447.48 132.144 448.6 131.856C449.752 131.568 450.824 131.424 451.816 131.424H452.824V133.584H451.576C450.808 133.584 449.992 133.776 449.128 134.16C448.296 134.544 447.592 135.072 447.016 135.744C446.44 136.384 446.152 137.136 446.152 138C446.152 139.344 446.568 140.4 447.4 141.168C448.232 141.904 449.288 142.272 450.568 142.272C451.656 142.272 452.472 142.032 453.016 141.552C453.56 141.072 453.912 140.448 454.072 139.68C454.264 138.88 454.36 138.032 454.36 137.136V124.752H443.272V122.592H454.36V116.736H439.192V114.576H454.264L454.216 108.048H459.64V114.576H469.48C469.512 113.712 469.8 112.96 470.344 112.32C470.888 111.648 471.608 111.312 472.504 111.312C473.24 111.312 473.912 111.584 474.52 112.128C475.16 112.64 475.48 113.264 475.48 114ZM525.832 117.168C525.832 117.872 525.624 118.464 525.208 118.944C524.792 119.392 524.104 119.712 523.144 119.904C522.76 119.968 522.2 120.08 521.464 120.24C520.728 120.368 519.928 120.512 519.064 120.672C518.232 120.832 517.448 120.992 516.712 121.152C515.976 121.28 515.416 121.392 515.032 121.488L514.984 128.112C514.984 129.264 514.84 130.336 514.552 131.328C514.264 132.32 513.752 133.12 513.016 133.728C512.312 134.304 511.288 134.592 509.944 134.592C509.176 134.592 508.408 134.368 507.64 133.92C506.904 133.44 506.2 132.88 505.528 132.24C504.888 131.568 504.312 130.96 503.8 130.416C503.704 130.288 503.592 130.144 503.464 129.984C503.336 129.792 503.272 129.616 503.272 129.456C503.272 129.296 503.352 129.216 503.512 129.216C503.672 129.184 503.8 129.2 503.896 129.264C504.664 129.68 505.448 130.048 506.248 130.368C507.048 130.656 507.832 130.8 508.6 130.8C509.048 130.8 509.384 130.608 509.608 130.224C509.864 129.84 509.992 129.44 509.992 129.024L510.04 122.304C508.376 122.624 506.568 123.008 504.616 123.456C502.696 123.904 500.968 124.288 499.432 124.608V133.776C499.432 136.432 500.136 138.384 501.544 139.632C502.984 140.88 504.984 141.504 507.544 141.504C509.24 141.504 510.92 141.36 512.584 141.072C514.28 140.784 515.928 140.384 517.528 139.872C517.176 139.616 516.872 139.296 516.616 138.912C516.392 138.496 516.28 138.08 516.28 137.664C516.28 136.928 516.536 136.352 517.048 135.936C517.592 135.488 518.216 135.264 518.92 135.264C519.624 135.264 520.248 135.504 520.792 135.984C521.368 136.432 521.656 137.024 521.656 137.76C521.656 138.624 521.304 139.392 520.6 140.064C519.896 140.704 519.192 141.2 518.488 141.552C516.824 142.352 515.128 143.04 513.4 143.616C511.704 144.192 509.928 144.56 508.072 144.72C507.656 144.752 507.24 144.768 506.824 144.768C506.408 144.8 505.976 144.816 505.528 144.816C502.04 144.816 499.288 143.936 497.272 142.176C495.288 140.384 494.296 137.696 494.296 134.112V125.76C494.04 125.824 493.56 125.952 492.856 126.144C492.184 126.336 491.384 126.56 490.456 126.816C489.56 127.072 488.648 127.344 487.72 127.632C486.792 127.888 485.976 128.128 485.272 128.352C484.568 128.544 484.072 128.704 483.784 128.832L482.872 126C483.16 125.904 483.672 125.776 484.408 125.616C485.144 125.424 485.992 125.216 486.952 124.992C487.912 124.768 488.872 124.544 489.832 124.32C490.824 124.064 491.72 123.856 492.52 123.696C493.32 123.504 493.912 123.376 494.296 123.312V114.096H499.432V122.4C501.128 122.048 502.904 121.664 504.76 121.248C506.616 120.832 508.376 120.48 510.04 120.192L509.896 108.576H515.08L515.032 119.376C515.96 119.152 516.904 118.928 517.864 118.704C518.824 118.48 519.704 118.272 520.504 118.08C520.376 117.824 520.312 117.52 520.312 117.168C520.312 116.432 520.6 115.776 521.176 115.2C521.752 114.592 522.392 114.288 523.096 114.288C523.832 114.288 524.472 114.576 525.016 115.152C525.56 115.696 525.832 116.368 525.832 117.168ZM573.544 129.216C573.544 131.296 573.144 133.296 572.344 135.216C571.576 137.104 570.536 138.8 569.224 140.304C567.752 142 566.104 143.296 564.28 144.192C562.456 145.088 560.392 145.536 558.088 145.536C555.752 145.536 553.72 145.056 551.992 144.096C550.264 143.136 549 141.744 548.2 139.92C547.56 138.448 547.24 136.768 547.24 134.88C547.24 133.984 547.288 133.088 547.384 132.192C547.48 131.264 547.592 130.352 547.72 129.456C547.72 129.392 547.72 129.312 547.72 129.216C547.752 129.12 547.768 129.056 547.768 129.024C547.832 128.704 547.848 128.48 547.816 128.352C547.816 128.192 547.736 128.112 547.576 128.112C547.064 128.112 546.616 128.208 546.232 128.4C545.848 128.592 545.496 128.768 545.176 128.928C544.824 129.12 544.36 129.504 543.784 130.08C543.24 130.656 542.664 131.312 542.056 132.048C541.48 132.784 540.92 133.536 540.376 134.304C540.152 134.752 539.848 135.328 539.464 136.032C539.112 136.704 538.744 137.392 538.36 138.096C538.008 138.8 537.704 139.424 537.448 139.968C537.192 140.48 537.032 140.8 536.968 140.928C536.776 141.536 536.52 141.936 536.2 142.128C535.88 142.32 535.512 142.416 535.096 142.416C534.776 142.416 534.392 142.256 533.944 141.936C533.528 141.584 533.16 141.12 532.84 140.544C532.52 140 532.328 139.488 532.264 139.008C532.232 138.528 532.232 138.128 532.264 137.808C532.264 137.52 532.344 137.216 532.504 136.896C532.696 136.576 532.888 136.32 533.08 136.128C533.688 135.552 534.184 135.088 534.568 134.736C534.984 134.352 535.336 133.968 535.624 133.584C535.944 133.2 536.264 132.704 536.584 132.096L541.432 123.024C542.296 121.392 543.208 119.744 544.168 118.08C545.128 116.384 546.04 114.72 546.904 113.088C547.384 112.224 547.864 111.344 548.344 110.448C548.824 109.552 549.272 108.656 549.688 107.76C550.552 107.984 551.432 108.208 552.328 108.432C553.256 108.656 554.152 108.912 555.016 109.2C555.176 109.232 555.352 109.296 555.544 109.392C555.736 109.488 555.832 109.648 555.832 109.872C555.832 110.032 555.768 110.192 555.64 110.352C555.544 110.512 555.464 110.656 555.4 110.784C554.888 111.52 554.344 112.24 553.768 112.944C553.224 113.648 552.68 114.368 552.136 115.104C550.536 117.248 548.904 119.424 547.24 121.632C545.608 123.84 544.088 126.08 542.68 128.352C543.224 127.968 543.944 127.568 544.84 127.152C545.736 126.736 546.664 126.4 547.624 126.144C548.584 125.856 549.4 125.712 550.072 125.712C550.52 125.712 550.84 125.792 551.032 125.952C551.224 126.112 551.272 126.432 551.176 126.912C551.016 127.808 550.888 128.56 550.792 129.168C550.728 129.744 550.696 130.032 550.696 130.032C550.536 130.992 550.456 131.84 550.456 132.576C550.456 133.312 550.456 133.744 550.456 133.872C550.616 135.92 551.384 137.616 552.76 138.96C554.136 140.272 555.848 140.928 557.896 140.928C559.752 140.928 561.544 140.544 563.272 139.776C565.032 138.976 566.52 137.984 567.736 136.8C569.24 135.328 570.312 133.568 570.952 131.52C570.152 131.52 569.368 131.296 568.6 130.848C567.864 130.4 567.512 129.712 567.544 128.784C567.576 128.048 567.912 127.424 568.552 126.912C569.192 126.368 569.896 126.096 570.664 126.096C571.464 126.128 572.136 126.48 572.68 127.152C573.256 127.792 573.544 128.48 573.544 129.216ZM604.936 126.336C604.936 127.648 604.824 129.168 604.6 130.896C604.376 132.592 604.008 134.32 603.496 136.08C602.984 137.84 602.296 139.472 601.432 140.976C600.6 142.448 599.56 143.648 598.312 144.576C597.064 145.504 595.592 145.968 593.896 145.968C592.968 145.968 592.152 145.664 591.448 145.056C590.776 144.448 590.216 143.696 589.768 142.8C589.352 141.872 589.032 140.928 588.808 139.968C588.616 138.976 588.52 138.112 588.52 137.376C588.52 137.152 588.632 137.04 588.856 137.04C588.92 137.04 589.016 137.216 589.144 137.568C589.304 137.92 589.4 138.128 589.432 138.192C589.784 138.896 590.296 139.648 590.968 140.448C591.64 141.216 592.424 141.6 593.32 141.6C594.216 141.6 595.016 141.184 595.72 140.352C596.424 139.52 597.032 138.464 597.544 137.184C598.056 135.904 598.472 134.544 598.792 133.104C599.112 131.664 599.352 130.336 599.512 129.12C599.672 127.872 599.752 126.896 599.752 126.192C599.752 124.912 599.528 123.808 599.08 122.88C598.632 121.952 597.656 121.488 596.152 121.488C596.024 121.488 595.88 121.488 595.72 121.488C595.592 121.488 595.464 121.504 595.336 121.536C593.8 124.928 591.992 128.144 589.912 131.184C587.832 134.224 585.56 137.12 583.096 139.872C583.032 139.936 582.92 140.048 582.76 140.208C582.632 140.368 582.504 140.448 582.376 140.448C582.248 140.448 581.992 140.336 581.608 140.112C581.224 139.856 580.824 139.568 580.408 139.248C579.992 138.896 579.624 138.576 579.304 138.288C579.016 138 578.872 137.792 578.872 137.664C578.872 137.504 578.952 137.344 579.112 137.184C581.288 135.104 583.368 132.784 585.352 130.224C587.336 127.632 588.888 124.928 590.008 122.112C588.728 122.24 587.432 122.432 586.12 122.688C584.84 122.944 583.56 123.152 582.28 123.312L581.752 120.384C583.256 120.352 584.76 120.288 586.264 120.192C587.8 120.064 589.32 119.952 590.824 119.856C591.592 117.84 592.296 115.808 592.936 113.76C593.608 111.712 594.168 109.616 594.616 107.472L600.232 108.96C599.72 110.784 599.112 112.56 598.408 114.288C597.736 116.016 597 117.728 596.2 119.424C596.456 119.456 596.728 119.472 597.016 119.472C597.304 119.44 597.576 119.424 597.832 119.424C600.392 119.424 602.216 119.936 603.304 120.96C604.392 121.952 604.936 123.744 604.936 126.336ZM623.464 125.712C623.464 126.544 623.112 127.28 622.408 127.92C621.736 128.56 620.984 128.88 620.152 128.88C619.544 128.88 618.984 128.672 618.472 128.256C617.96 127.84 617.704 127.296 617.704 126.624C617.704 126.112 617.88 125.68 618.232 125.328C618.616 124.944 619.064 124.672 619.576 124.512C620.088 124.32 620.568 124.272 621.016 124.368C620.504 123.664 619.768 122.992 618.808 122.352C617.848 121.712 616.776 121.12 615.592 120.576C614.408 120.032 613.24 119.568 612.088 119.184C610.968 118.8 609.976 118.544 609.112 118.416C608.888 118.384 608.616 118.336 608.296 118.272C608.008 118.208 607.864 118 607.864 117.648C607.864 117.552 608.008 117.312 608.296 116.928C608.584 116.544 608.92 116.128 609.304 115.68C609.72 115.232 610.104 114.816 610.456 114.432C610.808 114.016 611.048 113.744 611.176 113.616C612.52 114.032 613.896 114.608 615.304 115.344C616.744 116.048 618.072 116.912 619.288 117.936C620.536 118.928 621.544 120.08 622.312 121.392C623.08 122.704 623.464 124.144 623.464 125.712ZM652.36 142.512C652.36 143.6 651.96 144.512 651.16 145.248C650.392 146.016 649.48 146.4 648.424 146.4C647.368 146.4 646.44 146.016 645.64 145.248C644.872 144.512 644.488 143.6 644.488 142.512C644.488 141.424 644.872 140.496 645.64 139.728C646.408 138.96 647.336 138.576 648.424 138.576C649.512 138.576 650.44 138.96 651.208 139.728C651.976 140.496 652.36 141.424 652.36 142.512ZM659.8 115.056C659.8 116.4 659.448 117.632 658.744 118.752C658.072 119.84 657.224 120.816 656.2 121.68C655.176 122.512 654.136 123.264 653.08 123.936C651.704 124.832 650.744 125.904 650.2 127.152C649.688 128.4 649.432 129.824 649.432 131.424C649.432 132.032 649.448 132.64 649.48 133.248C649.544 133.856 649.576 134.464 649.576 135.072C649.576 135.392 649.464 135.664 649.24 135.888C649.016 136.08 648.728 136.176 648.376 136.176C648.12 136.176 647.864 135.984 647.608 135.6C647.384 135.184 647.176 134.704 646.984 134.16C646.824 133.584 646.68 133.056 646.552 132.576C646.456 132.064 646.408 131.696 646.408 131.472C646.408 130.064 646.472 128.72 646.6 127.44C646.76 126.16 647.224 124.912 647.992 123.696C648.568 122.768 649.24 121.84 650.008 120.912C650.808 119.984 651.512 119.024 652.12 118.032C652.728 117.008 653.032 115.904 653.032 114.72C653.032 113.888 652.872 113.072 652.552 112.272C652.232 111.44 651.752 110.752 651.112 110.208C650.504 109.632 649.736 109.344 648.808 109.344C648.104 109.344 647.384 109.52 646.648 109.872C645.944 110.192 645.352 110.608 644.872 111.12C644.552 111.44 644.232 111.888 643.912 112.464C643.592 113.04 643.432 113.568 643.432 114.048C643.432 114.624 643.56 115.056 643.816 115.344C644.104 115.632 644.424 115.824 644.776 115.92C645.16 116.016 645.48 116.112 645.736 116.208C646.024 116.304 646.168 116.448 646.168 116.64C646.168 117.12 645.96 117.536 645.544 117.888C645.128 118.208 644.616 118.48 644.008 118.704C643.432 118.896 642.84 119.04 642.232 119.136C641.656 119.232 641.192 119.28 640.84 119.28C640.008 119.28 639.304 118.976 638.728 118.368C638.184 117.728 637.912 117.008 637.912 116.208C637.912 114.736 638.264 113.456 638.968 112.368C639.672 111.248 640.6 110.32 641.752 109.584C642.904 108.816 644.152 108.24 645.496 107.856C646.872 107.472 648.2 107.28 649.48 107.28C650.696 107.28 651.912 107.424 653.128 107.712C654.344 107.968 655.448 108.4 656.44 109.008C657.464 109.616 658.28 110.416 658.888 111.408C659.496 112.4 659.8 113.616 659.8 115.056Z" fill="#0C0C0C"/>
<defs>
<clipPath id="clip0_90_378">
<rect width="62" height="62" fill="white" transform="matrix(-0.916234 -0.400642 -0.400642 0.916234 615.646 40.8398)"/>
</clipPath>
<clipPath id="clip1_90_378">
<rect width="52" height="52" fill="white" transform="translate(177 46.8991) rotate(-8.73738)"/>
</clipPath>
<clipPath id="clip2_90_378">
<rect width="103" height="28" fill="white" transform="translate(291)"/>
</clipPath>
</defs>
</svg>
