
<svg width="544" height="126" viewBox="0 0 544 126" fill="none" xmlns="http://www.w3.org/2000/svg">
<path d="M175.772 26.512C175.772 26.776 175.7 26.992 175.556 27.16C175.436 27.328 175.268 27.472 175.052 27.592C174.74 27.808 174.392 28.012 174.008 28.204C173.648 28.372 173.3 28.552 172.964 28.744C172.388 29.056 171.764 29.452 171.092 29.932C170.444 30.412 169.856 30.856 169.328 31.264C168.872 31.624 168.308 32.104 167.636 32.704C166.988 33.304 166.34 33.964 165.692 34.684C165.044 35.404 164.504 36.124 164.072 36.844C163.664 37.564 163.46 38.236 163.46 38.86C163.46 40.084 163.772 41.02 164.396 41.668C165.044 42.292 165.848 42.736 166.808 43C167.768 43.264 168.728 43.456 169.688 43.576C169.712 43.096 169.916 42.628 170.3 42.172C170.684 41.716 171.128 41.488 171.632 41.488C172.088 41.488 172.544 41.632 173 41.92C173.48 42.184 173.72 42.568 173.72 43.072C173.72 43.672 173.504 44.14 173.072 44.476C172.664 44.812 172.172 44.992 171.596 45.016C171.428 45.016 171.248 45.016 171.056 45.016C170.888 45.016 170.72 45.016 170.552 45.016C169.4 45.016 168.272 44.944 167.168 44.8C166.064 44.68 164.984 44.404 163.928 43.972C163.232 43.684 162.56 43.336 161.912 42.928C161.288 42.496 160.772 41.992 160.364 41.416C159.98 40.816 159.788 40.096 159.788 39.256C159.788 38.56 159.944 37.864 160.256 37.168C160.592 36.448 160.964 35.812 161.372 35.26C162.212 34.108 163.136 33.004 164.144 31.948C165.176 30.868 166.208 29.848 167.24 28.888C164.072 29.752 160.94 30.724 157.844 31.804C157.148 32.044 156.452 32.32 155.756 32.632C155.084 32.92 154.4 33.196 153.704 33.46C153.464 33.556 153.212 33.64 152.948 33.712C152.684 33.76 152.42 33.784 152.156 33.784C151.964 33.784 151.76 33.7 151.544 33.532C151.352 33.364 151.256 33.172 151.256 32.956C151.256 32.668 151.316 32.308 151.436 31.876C151.556 31.444 151.7 31.108 151.868 30.868C152.084 30.58 152.36 30.4 152.696 30.328C153.032 30.256 153.392 30.22 153.776 30.22C154.184 30.196 154.604 30.148 155.036 30.076C155.492 29.98 155.948 29.776 156.404 29.464C157.268 28.84 158.156 28.096 159.068 27.232C160.004 26.368 160.904 25.444 161.768 24.46C162.656 23.452 163.46 22.432 164.18 21.4C164.9 20.368 165.488 19.372 165.944 18.412C165.992 18.292 166.052 18.1 166.124 17.836C166.22 17.572 166.292 17.416 166.34 17.368C166.436 17.272 166.616 17.212 166.88 17.188C167.144 17.14 167.42 17.116 167.708 17.116C167.996 17.092 168.2 17.08 168.32 17.08C168.536 17.08 168.836 17.08 169.22 17.08C169.604 17.08 170 17.104 170.408 17.152C170.816 17.2 171.164 17.308 171.452 17.476C171.74 17.62 171.884 17.848 171.884 18.16C171.884 18.4 171.764 18.628 171.524 18.844C171.284 19.06 171.08 19.252 170.912 19.42C170.168 20.068 169.46 20.752 168.788 21.472C168.116 22.168 167.408 22.84 166.664 23.488C165.344 24.664 163.988 25.792 162.596 26.872C161.228 27.952 159.812 28.984 158.348 29.968C159.548 29.632 160.748 29.296 161.948 28.96C163.148 28.6 164.336 28.24 165.512 27.88C166.184 27.664 166.868 27.46 167.564 27.268C168.26 27.052 168.932 26.8 169.58 26.512C169.988 26.344 170.384 26.092 170.768 25.756C171.176 25.396 171.584 25.072 171.992 24.784C172.4 24.472 172.808 24.316 173.216 24.316C173.552 24.316 173.912 24.424 174.296 24.64C174.704 24.856 175.052 25.132 175.34 25.468C175.628 25.804 175.772 26.152 175.772 26.512ZM163.46 19.924C163.46 20.212 163.316 20.452 163.028 20.644C162.74 20.836 162.392 21.004 161.984 21.148C161.576 21.268 161.168 21.364 160.76 21.436C160.376 21.484 160.076 21.508 159.86 21.508C159.308 21.508 158.768 21.472 158.24 21.4C157.736 21.304 157.22 21.184 156.692 21.04C156.476 20.968 156.152 20.824 155.72 20.608C155.312 20.368 155.108 20.116 155.108 19.852C155.108 19.804 155.168 19.648 155.288 19.384C155.408 19.096 155.552 18.784 155.72 18.448C155.912 18.112 156.08 17.812 156.224 17.548C156.392 17.26 156.5 17.104 156.548 17.08C156.62 17.032 156.692 16.984 156.764 16.936C156.86 16.864 156.956 16.828 157.052 16.828C157.34 16.828 157.628 16.996 157.916 17.332C158.228 17.668 158.552 18.04 158.888 18.448C159.248 18.832 159.632 19.12 160.04 19.312C160.376 19.432 160.748 19.528 161.156 19.6C161.564 19.648 161.948 19.672 162.308 19.672C162.428 19.672 162.56 19.66 162.704 19.636C162.848 19.612 162.98 19.6 163.1 19.6C163.34 19.6 163.46 19.708 163.46 19.924ZM215.408 31.912C215.408 33.472 215.108 34.972 214.508 36.412C213.932 37.828 213.152 39.1 212.168 40.228C211.064 41.5 209.828 42.472 208.46 43.144C207.092 43.816 205.544 44.152 203.816 44.152C202.064 44.152 200.54 43.792 199.244 43.072C197.948 42.352 197 41.308 196.4 39.94C195.92 38.836 195.68 37.576 195.68 36.16C195.68 35.488 195.716 34.816 195.788 34.144C195.86 33.448 195.944 32.764 196.04 32.092C196.04 32.044 196.04 31.984 196.04 31.912C196.064 31.84 196.076 31.792 196.076 31.768C196.124 31.528 196.136 31.36 196.112 31.264C196.112 31.144 196.052 31.084 195.932 31.084C195.548 31.084 195.212 31.156 194.924 31.3C194.636 31.444 194.372 31.576 194.132 31.696C193.868 31.84 193.52 32.128 193.088 32.56C192.68 32.992 192.248 33.484 191.792 34.036C191.36 34.588 190.94 35.152 190.532 35.728C190.364 36.064 190.136 36.496 189.848 37.024C189.584 37.528 189.308 38.044 189.02 38.572C188.756 39.1 188.528 39.568 188.336 39.976C188.144 40.36 188.024 40.6 187.976 40.696C187.832 41.152 187.64 41.452 187.4 41.596C187.16 41.74 186.884 41.812 186.572 41.812C186.332 41.812 186.044 41.692 185.708 41.452C185.396 41.188 185.12 40.84 184.88 40.408C184.64 40 184.496 39.616 184.448 39.256C184.424 38.896 184.424 38.596 184.448 38.356C184.448 38.14 184.508 37.912 184.628 37.672C184.772 37.432 184.916 37.24 185.06 37.096C185.516 36.664 185.888 36.316 186.176 36.052C186.488 35.764 186.752 35.476 186.968 35.188C187.208 34.9 187.448 34.528 187.688 34.072L191.324 27.268C191.972 26.044 192.656 24.808 193.376 23.56C194.096 22.288 194.78 21.04 195.428 19.816C195.788 19.168 196.148 18.508 196.508 17.836C196.868 17.164 197.204 16.492 197.516 15.82C198.164 15.988 198.824 16.156 199.496 16.324C200.192 16.492 200.864 16.684 201.512 16.9C201.632 16.924 201.764 16.972 201.908 17.044C202.052 17.116 202.124 17.236 202.124 17.404C202.124 17.524 202.076 17.644 201.98 17.764C201.908 17.884 201.848 17.992 201.8 18.088C201.416 18.64 201.008 19.18 200.576 19.708C200.168 20.236 199.76 20.776 199.352 21.328C198.152 22.936 196.928 24.568 195.68 26.224C194.456 27.88 193.316 29.56 192.26 31.264C192.668 30.976 193.208 30.676 193.88 30.364C194.552 30.052 195.248 29.8 195.968 29.608C196.688 29.392 197.3 29.284 197.804 29.284C198.14 29.284 198.38 29.344 198.524 29.464C198.668 29.584 198.704 29.824 198.632 30.184C198.512 30.856 198.416 31.42 198.344 31.876C198.296 32.308 198.272 32.524 198.272 32.524C198.152 33.244 198.092 33.88 198.092 34.432C198.092 34.984 198.092 35.308 198.092 35.404C198.212 36.94 198.788 38.212 199.82 39.22C200.852 40.204 202.136 40.696 203.672 40.696C205.064 40.696 206.408 40.408 207.704 39.832C209.024 39.232 210.14 38.488 211.052 37.6C212.18 36.496 212.984 35.176 213.464 33.64C212.864 33.64 212.276 33.472 211.7 33.136C211.148 32.8 210.884 32.284 210.908 31.588C210.932 31.036 211.184 30.568 211.664 30.184C212.144 29.776 212.672 29.572 213.248 29.572C213.848 29.596 214.352 29.86 214.76 30.364C215.192 30.844 215.408 31.36 215.408 31.912ZM238.7 37.42C238.46 37.372 238.22 37.348 237.98 37.348C237.74 37.348 237.5 37.348 237.26 37.348C236.684 37.348 236.096 37.48 235.496 37.744C234.896 38.008 234.392 38.38 233.984 38.86C233.576 39.316 233.372 39.868 233.372 40.516C233.372 41.308 233.612 41.896 234.092 42.28C234.572 42.664 235.184 42.856 235.928 42.856C236.768 42.856 237.38 42.64 237.764 42.208C238.148 41.776 238.4 41.236 238.52 40.588C238.64 39.94 238.7 39.292 238.7 38.644V37.42ZM249.608 41.524C249.608 42.028 249.404 42.484 248.996 42.892C248.612 43.3 248.168 43.504 247.664 43.504C247.28 43.504 246.86 43.396 246.404 43.18C245.948 42.964 245.72 42.628 245.72 42.172C245.72 41.812 245.804 41.5 245.972 41.236C246.14 40.972 246.368 40.732 246.656 40.516C246.368 40.156 245.96 39.808 245.432 39.472C244.904 39.112 244.352 38.8 243.776 38.536C243.2 38.272 242.672 38.116 242.192 38.068V40.156C242.192 41.86 241.64 43.168 240.536 44.08C239.432 45.016 238.064 45.484 236.432 45.484C235.544 45.484 234.656 45.304 233.768 44.944C232.88 44.608 232.136 44.092 231.536 43.396C230.936 42.724 230.636 41.884 230.636 40.876C230.636 39.892 230.9 39.064 231.428 38.392C231.956 37.72 232.628 37.192 233.444 36.808C234.284 36.4 235.16 36.124 236.072 35.98C237.008 35.836 237.872 35.8 238.664 35.872V30.472H242.192L242.156 36.196C242.78 36.316 243.512 36.52 244.352 36.808C245.192 37.072 246.008 37.432 246.8 37.888C247.616 38.32 248.288 38.836 248.816 39.436C249.344 40.036 249.608 40.732 249.608 41.524ZM248.204 25.756C248.204 26.116 248.108 26.524 247.916 26.98C247.724 27.436 247.532 27.82 247.34 28.132C247.1 28.516 246.776 28.9 246.368 29.284C245.96 29.644 245.504 29.824 245 29.824C244.832 29.824 244.7 29.776 244.604 29.68C244.532 29.56 244.46 29.44 244.388 29.32C244.22 28.984 244.064 28.624 243.92 28.24C243.8 27.856 243.668 27.472 243.524 27.088C243.284 26.92 243.008 26.812 242.696 26.764C242.408 26.692 242.108 26.656 241.796 26.656C240.452 26.656 239.072 26.884 237.656 27.34C236.264 27.772 234.896 28.36 233.552 29.104C232.208 29.848 230.948 30.688 229.772 31.624C228.596 32.536 227.576 33.484 226.712 34.468C226.256 34.996 225.812 35.536 225.38 36.088C224.948 36.64 224.48 37.144 223.976 37.6C223.832 37.744 223.652 37.888 223.436 38.032C223.244 38.152 223.04 38.212 222.824 38.212C222.512 38.212 222.248 37.984 222.032 37.528C221.816 37.072 221.648 36.58 221.528 36.052C221.408 35.524 221.348 35.14 221.348 34.9C221.348 34.636 221.42 34.432 221.564 34.288C221.732 34.144 221.912 34 222.104 33.856C222.488 33.592 222.872 33.328 223.256 33.064C223.664 32.776 224.06 32.512 224.444 32.272C224.612 32.176 224.78 32.08 224.948 31.984C225.116 31.888 225.272 31.768 225.416 31.624C225.584 31.48 225.728 31.312 225.848 31.12C225.992 30.928 226.124 30.736 226.244 30.544C226.796 29.704 227.336 28.732 227.864 27.628C228.416 26.5 228.896 25.36 229.304 24.208C229.736 23.032 230.036 21.952 230.204 20.968L223.616 21.184V19.636L230.564 19.456C230.684 18.616 230.816 17.776 230.96 16.936C231.104 16.072 231.188 15.208 231.212 14.344L235.64 15.028C235.568 15.772 235.436 16.504 235.244 17.224C235.052 17.944 234.86 18.664 234.668 19.384L238.556 19.204C238.604 18.58 238.832 18.016 239.24 17.512C239.648 16.984 240.188 16.72 240.86 16.72C241.388 16.72 241.892 16.9 242.372 17.26C242.876 17.596 243.128 18.052 243.128 18.628C243.128 19.3 242.9 19.804 242.444 20.14C241.988 20.452 241.448 20.62 240.824 20.644L234.056 20.896C233.552 22.456 232.844 24.052 231.932 25.684C231.044 27.316 230.132 28.804 229.196 30.148C230.804 29.068 232.352 28.096 233.84 27.232C235.352 26.368 236.924 25.684 238.556 25.18C240.188 24.676 242 24.424 243.992 24.424C244.184 24.424 244.508 24.448 244.964 24.496C245.42 24.52 245.9 24.58 246.404 24.676C246.908 24.772 247.328 24.916 247.664 25.108C248.024 25.276 248.204 25.492 248.204 25.756ZM390.116 40.012C390.116 40.708 389.852 41.296 389.324 41.776C388.796 42.232 388.124 42.616 387.308 42.928C386.492 43.216 385.616 43.444 384.68 43.612C383.768 43.78 382.904 43.888 382.088 43.936C381.272 44.008 380.624 44.044 380.144 44.044C379.328 44.044 378.44 43.96 377.48 43.792C376.544 43.624 375.644 43.348 374.78 42.964C373.916 42.556 373.208 42.016 372.656 41.344C372.104 40.672 371.828 39.82 371.828 38.788C371.828 38.212 371.996 37.6 372.332 36.952C372.668 36.28 373.1 35.644 373.628 35.044C374.156 34.42 374.708 33.868 375.284 33.388C375.884 32.908 376.436 32.548 376.94 32.308C377.108 32.212 377.276 32.164 377.444 32.164C377.612 32.164 377.756 32.212 377.876 32.308C377.996 32.404 378.056 32.536 378.056 32.704C378.056 32.92 377.9 33.172 377.588 33.46C377.3 33.724 376.964 34.06 376.58 34.468C376.196 34.852 375.848 35.344 375.536 35.944C375.248 36.52 375.104 37.24 375.104 38.104C375.104 38.824 375.32 39.436 375.752 39.94C376.208 40.42 376.772 40.816 377.444 41.128C378.116 41.416 378.812 41.632 379.532 41.776C380.252 41.896 380.9 41.956 381.476 41.956C382.388 41.956 383.312 41.908 384.248 41.812C385.184 41.716 386.084 41.524 386.948 41.236C386.66 41.164 386.42 40.996 386.228 40.732C386.036 40.444 385.94 40.156 385.94 39.868C385.94 39.388 386.18 38.992 386.66 38.68C387.14 38.344 387.608 38.176 388.064 38.176C388.544 38.176 389 38.356 389.432 38.716C389.888 39.076 390.116 39.508 390.116 40.012ZM394.04 27.376C394.04 27.736 393.956 27.976 393.788 28.096C393.62 28.192 393.392 28.276 393.104 28.348C391.472 28.732 389.936 29.092 388.496 29.428C387.056 29.74 385.52 30.208 383.888 30.832C383.144 31.12 382.664 31.432 382.448 31.768C382.232 32.08 382.124 32.632 382.124 33.424V35.8C382.124 36.256 381.968 36.616 381.656 36.88C381.344 37.144 380.972 37.336 380.54 37.456C380.132 37.576 379.736 37.636 379.352 37.636C379.04 37.636 378.812 37.54 378.668 37.348C378.548 37.132 378.488 36.88 378.488 36.592C378.488 36.496 378.488 36.412 378.488 36.34C378.512 36.268 378.524 36.184 378.524 36.088C378.644 35.248 378.716 34.408 378.74 33.568C378.788 32.728 378.812 31.888 378.812 31.048C378.812 30.592 378.716 30.124 378.524 29.644C378.332 29.14 378.056 28.708 377.696 28.348C377.36 27.988 376.928 27.808 376.4 27.808C375.584 27.808 374.852 27.976 374.204 28.312C373.58 28.648 373.016 29.068 372.512 29.572C372.032 30.052 371.6 30.544 371.216 31.048C370.832 31.552 370.46 31.972 370.1 32.308C369.764 32.644 369.428 32.812 369.092 32.812C368.804 32.812 368.576 32.68 368.408 32.416C368.24 32.128 368.12 31.816 368.048 31.48C367.976 31.144 367.94 30.868 367.94 30.652C367.94 30.364 368.048 30.112 368.264 29.896C368.504 29.68 368.744 29.512 368.984 29.392C369.368 29.2 369.752 28.996 370.136 28.78C370.52 28.54 370.88 28.288 371.216 28.024C371.696 27.616 372.188 27.028 372.692 26.26C373.196 25.468 373.652 24.652 374.06 23.812C374.468 22.948 374.756 22.228 374.924 21.652H368.516V20.104H375.284C375.452 19.336 375.584 18.568 375.68 17.8C375.776 17.008 375.872 16.216 375.968 15.424C376.592 15.568 377.216 15.7 377.84 15.82C378.488 15.916 379.112 16.06 379.712 16.252C379.832 16.276 379.952 16.324 380.072 16.396C380.216 16.444 380.288 16.552 380.288 16.72C380.288 16.96 380.216 17.308 380.072 17.764C379.952 18.196 379.808 18.628 379.64 19.06C379.472 19.492 379.34 19.84 379.244 20.104H384.536C384.536 19.528 384.728 19.048 385.112 18.664C385.52 18.256 386.024 18.052 386.624 18.052C387.104 18.052 387.56 18.232 387.992 18.592C388.448 18.928 388.676 19.348 388.676 19.852C388.676 20.524 388.448 20.992 387.992 21.256C387.56 21.52 387.044 21.652 386.444 21.652H378.668C378.164 22.732 377.528 23.692 376.76 24.532C375.992 25.348 375.152 26.14 374.24 26.908C374.36 26.884 374.468 26.872 374.564 26.872C374.66 26.848 374.756 26.824 374.852 26.8C375.26 26.68 375.656 26.584 376.04 26.512C376.448 26.416 376.856 26.368 377.264 26.368C378.44 26.368 379.46 26.584 380.324 27.016C381.188 27.424 381.752 28.252 382.016 29.5C383.36 28.78 384.704 28.084 386.048 27.412C387.392 26.74 388.724 26.044 390.044 25.324C390.14 25.276 390.224 25.228 390.296 25.18C390.392 25.108 390.488 25.06 390.584 25.036C390.92 24.868 391.244 24.784 391.556 24.784C391.7 24.784 391.904 24.892 392.168 25.108C392.456 25.3 392.744 25.552 393.032 25.864C393.32 26.152 393.56 26.44 393.752 26.728C393.944 27.016 394.04 27.232 394.04 27.376Z" fill="#0C0C0C"/>
<path d="M276.608 42.568C276.608 42.76 276.524 42.904 276.356 43C276.212 43.12 276.044 43.18 275.852 43.18C275.66 43.18 275.444 43.12 275.204 43C274.82 42.832 274.448 42.64 274.088 42.424C273.752 42.184 273.404 41.956 273.044 41.74C272.324 41.308 271.604 40.876 270.884 40.444C270.164 40.012 269.444 39.58 268.724 39.148C267.908 40.012 266.948 40.84 265.844 41.632C264.74 42.424 263.576 43.12 262.352 43.72C261.152 44.32 259.964 44.788 258.788 45.124C258.332 45.268 257.84 45.34 257.312 45.34C257.264 45.34 257.18 45.316 257.06 45.268C256.964 45.22 256.916 45.16 256.916 45.088C256.916 44.944 256.964 44.836 257.06 44.764C257.18 44.692 257.288 44.62 257.384 44.548C258.944 43.54 260.42 42.448 261.812 41.272C263.228 40.072 264.464 38.704 265.52 37.168C264.872 36.808 264.176 36.424 263.432 36.016C262.688 35.584 261.98 35.188 261.308 34.828L263.828 31.624C264.404 31.936 265.028 32.32 265.7 32.776C266.396 33.208 267.008 33.616 267.536 34C267.872 33.424 268.184 32.824 268.472 32.2C268.76 31.576 269.036 30.964 269.3 30.364C269.924 30.628 270.536 30.904 271.136 31.192C271.76 31.456 272.372 31.72 272.972 31.984C273.044 32.008 273.116 32.032 273.188 32.056C273.26 32.08 273.332 32.116 273.404 32.164C273.572 32.236 273.656 32.332 273.656 32.452C273.656 32.572 273.536 32.824 273.296 33.208C273.056 33.592 272.768 34.024 272.432 34.504C272.096 34.96 271.772 35.38 271.46 35.764C271.172 36.148 270.98 36.412 270.884 36.556C271.172 36.772 271.628 37.144 272.252 37.672C272.876 38.2 273.512 38.776 274.16 39.4C274.832 40.024 275.408 40.624 275.888 41.2C276.368 41.776 276.608 42.232 276.608 42.568ZM289.712 43.792C289.712 44.392 289.472 44.908 288.992 45.34C288.512 45.772 287.984 45.988 287.408 45.988C286.76 45.988 286.076 45.844 285.356 45.556C284.636 45.268 283.952 44.908 283.304 44.476C282.656 44.044 282.104 43.6 281.648 43.144C280.472 41.944 279.512 40.576 278.768 39.04C278.048 37.504 277.508 35.896 277.148 34.216C276.788 32.536 276.596 30.88 276.572 29.248H258.464V27.592C262.328 27.616 266.18 27.628 270.02 27.628C273.86 27.628 277.7 27.628 281.54 27.628C281.468 28.804 281.432 30.004 281.432 31.228C281.432 32.62 281.552 34.036 281.792 35.476C282.032 36.892 282.44 38.26 283.016 39.58C283.592 40.9 284.372 42.076 285.356 43.108C285.548 42.676 285.836 42.316 286.22 42.028C286.604 41.74 287.036 41.596 287.516 41.596C288.116 41.596 288.632 41.812 289.064 42.244C289.496 42.676 289.712 43.192 289.712 43.792ZM281.648 22.696C281.648 23.224 281.432 23.656 281 23.992C280.592 24.304 280.148 24.46 279.668 24.46H264.836V22.804H277.472C277.472 22.18 277.664 21.676 278.048 21.292C278.432 20.884 278.924 20.68 279.524 20.68C280.076 20.68 280.568 20.884 281 21.292C281.432 21.676 281.648 22.144 281.648 22.696ZM285.176 17.512C285.176 18.064 284.936 18.508 284.456 18.844C283.976 19.18 283.484 19.348 282.98 19.348H266.78C265.892 20.524 264.848 21.652 263.648 22.732C262.472 23.812 261.236 24.7 259.94 25.396C259.7 25.516 259.376 25.672 258.968 25.864C258.56 26.032 258.224 26.116 257.96 26.116C257.72 26.116 257.6 26.008 257.6 25.792C257.6 25.744 257.636 25.672 257.708 25.576C257.804 25.456 257.864 25.384 257.888 25.36C258.944 24.232 259.928 22.96 260.84 21.544C261.776 20.104 262.616 18.616 263.36 17.08C264.104 15.544 264.704 14.056 265.16 12.616L269.876 14.02C270.068 14.068 270.164 14.164 270.164 14.308C270.164 14.404 270.068 14.62 269.876 14.956C269.684 15.268 269.444 15.616 269.156 16C268.892 16.384 268.64 16.732 268.4 17.044C268.16 17.356 268.004 17.572 267.932 17.692H280.712C280.712 17.068 280.916 16.54 281.324 16.108C281.732 15.652 282.26 15.424 282.908 15.424C283.46 15.424 283.976 15.628 284.456 16.036C284.936 16.42 285.176 16.912 285.176 17.512ZM304.832 21.904C304.832 22.48 304.616 22.9 304.184 23.164C303.752 23.428 303.284 23.56 302.78 23.56H300.512C300.512 24.376 300.512 25.204 300.512 26.044C300.536 26.86 300.548 27.688 300.548 28.528C300.644 28.48 300.86 28.408 301.196 28.312C301.556 28.192 301.94 28.06 302.348 27.916C302.756 27.772 303.116 27.652 303.428 27.556C303.74 27.46 303.908 27.412 303.932 27.412C304.1 27.412 304.184 27.472 304.184 27.592C304.184 27.808 304.028 28.096 303.716 28.456C303.428 28.792 303.068 29.152 302.636 29.536C302.204 29.92 301.784 30.268 301.376 30.58C300.992 30.892 300.716 31.108 300.548 31.228V40.372C300.548 41.38 300.452 42.316 300.26 43.18C300.092 44.068 299.708 44.776 299.108 45.304C298.532 45.856 297.62 46.132 296.372 46.132C295.484 46.132 294.596 45.928 293.708 45.52C292.82 45.112 292.052 44.608 291.404 44.008C291.38 43.96 291.344 43.912 291.296 43.864C291.248 43.816 291.224 43.756 291.224 43.684C291.224 43.612 291.26 43.564 291.332 43.54C291.404 43.516 291.464 43.504 291.512 43.504C291.56 43.504 291.596 43.504 291.62 43.504C291.668 43.528 291.704 43.54 291.728 43.54C292.136 43.612 292.544 43.672 292.952 43.72C293.36 43.768 293.768 43.792 294.176 43.792C294.824 43.792 295.304 43.636 295.616 43.324C295.928 43.012 296.132 42.616 296.228 42.136C296.348 41.656 296.408 41.152 296.408 40.624C296.408 39.376 296.408 38.128 296.408 36.88C296.408 35.632 296.396 34.384 296.372 33.136C295.7 33.52 295.028 33.904 294.356 34.288C293.684 34.672 293 34.936 292.304 35.08L290.144 31.444C291.224 31.18 292.268 30.916 293.276 30.652C294.308 30.364 295.34 30.052 296.372 29.716C296.372 28.684 296.36 27.664 296.336 26.656C296.336 25.624 296.336 24.592 296.336 23.56H291.512V21.976H296.336C296.312 20.704 296.3 19.432 296.3 18.16C296.3 16.864 296.3 15.58 296.3 14.308H300.476C300.476 15.58 300.464 16.864 300.44 18.16C300.44 19.432 300.44 20.704 300.44 21.976H301.268C301.268 21.544 301.436 21.136 301.772 20.752C302.132 20.368 302.54 20.176 302.996 20.176C303.476 20.176 303.896 20.344 304.256 20.68C304.64 21.016 304.832 21.424 304.832 21.904ZM311.96 39.148C311.96 39.316 311.9 39.484 311.78 39.652C311.66 39.796 311.504 39.868 311.312 39.868C311.12 39.868 310.928 39.832 310.736 39.76C310.544 39.664 310.364 39.568 310.196 39.472C309.236 38.92 308.252 38.392 307.244 37.888C306.26 37.384 305.276 36.88 304.292 36.376C304.292 36.376 304.46 36.232 304.796 35.944C305.132 35.632 305.528 35.284 305.984 34.9C306.464 34.516 306.896 34.18 307.28 33.892C307.688 33.58 307.94 33.424 308.036 33.424C308.204 33.424 308.396 33.508 308.612 33.676C308.804 33.82 309.08 34.144 309.44 34.648C309.8 35.128 310.172 35.68 310.556 36.304C310.94 36.904 311.264 37.48 311.528 38.032C311.816 38.56 311.96 38.932 311.96 39.148ZM325.46 25.288C325.46 25.816 325.292 26.272 324.956 26.656C324.62 27.016 324.176 27.196 323.624 27.196H318.692V31.192H320.744C320.792 30.64 320.984 30.16 321.32 29.752C321.68 29.344 322.148 29.14 322.724 29.14C323.18 29.14 323.648 29.308 324.128 29.644C324.608 29.956 324.848 30.364 324.848 30.868C324.848 31.396 324.68 31.84 324.344 32.2C324.008 32.56 323.564 32.74 323.012 32.74H318.692V40.912C318.692 42.544 318.344 43.888 317.648 44.944C316.952 46 315.692 46.528 313.868 46.528C313.148 46.528 312.428 46.336 311.708 45.952C311.012 45.568 310.352 45.1 309.728 44.548C309.104 43.996 308.552 43.48 308.072 43C308.048 42.952 308 42.904 307.928 42.856C307.88 42.808 307.856 42.76 307.856 42.712C307.856 42.64 307.916 42.604 308.036 42.604C308.108 42.604 308.168 42.616 308.216 42.64C308.288 42.64 308.36 42.652 308.432 42.676C309.128 42.892 309.836 43.06 310.556 43.18C311.276 43.324 311.996 43.396 312.716 43.396C313.244 43.396 313.628 43.252 313.868 42.964C314.108 42.676 314.252 42.316 314.3 41.884C314.372 41.452 314.408 41.032 314.408 40.624V32.74H303.212V31.192H314.408V27.196H302.312V25.72H310.196V20.536H304.868V18.916H310.196V13.264H314.552V18.916H317.504C317.504 18.34 317.696 17.848 318.08 17.44C318.488 17.032 318.98 16.828 319.556 16.828C320.108 16.828 320.588 17.032 320.996 17.44C321.428 17.824 321.644 18.292 321.644 18.844C321.644 19.396 321.416 19.816 320.96 20.104C320.528 20.392 320.06 20.536 319.556 20.536H314.552V25.72H321.068C321.116 25.12 321.32 24.58 321.68 24.1C322.064 23.62 322.58 23.38 323.228 23.38C323.732 23.38 324.224 23.56 324.704 23.92C325.208 24.28 325.46 24.736 325.46 25.288ZM354.98 34C354.98 35.536 354.62 36.844 353.9 37.924C353.204 39.004 352.28 39.904 351.128 40.624C349.976 41.344 348.728 41.92 347.384 42.352C346.04 42.784 344.744 43.12 343.496 43.36C342.584 43.528 341.66 43.684 340.724 43.828C339.812 43.972 338.888 44.044 337.952 44.044C337.544 44.044 337.136 43.912 336.728 43.648C336.32 43.408 336.116 43.06 336.116 42.604C336.116 42.076 336.284 41.608 336.62 41.2C336.98 40.792 337.436 40.588 337.988 40.588C338.612 40.588 339.116 40.78 339.5 41.164C339.884 41.524 340.076 42.016 340.076 42.64C340.076 42.664 340.064 42.712 340.04 42.784C340.016 42.832 339.992 42.88 339.968 42.928C341 42.784 342.02 42.496 343.028 42.064C344.036 41.632 344.984 41.164 345.872 40.66C346.64 40.228 347.372 39.712 348.068 39.112C348.764 38.512 349.328 37.828 349.76 37.06C350.216 36.292 350.444 35.44 350.444 34.504C350.444 33.496 350.096 32.668 349.4 32.02C348.728 31.372 347.9 31.048 346.916 31.048C346.076 31.048 345.236 31.12 344.396 31.264C343.556 31.408 342.716 31.576 341.876 31.768C341.636 31.816 341.228 31.936 340.652 32.128C340.076 32.296 339.512 32.452 338.96 32.596C338.432 32.74 338.084 32.812 337.916 32.812C337.748 32.812 337.652 32.752 337.628 32.632C337.604 32.512 337.592 32.392 337.592 32.272C337.592 31.768 337.64 31.048 337.736 30.112C337.832 29.176 337.928 28.18 338.024 27.124C338.144 26.044 338.228 25.048 338.276 24.136L331.04 24.604L331.076 22.912L338.312 22.624L338.636 17.296L342.704 17.152L342.236 22.444L349.652 22.012C349.652 21.388 349.82 20.788 350.156 20.212C350.516 19.636 351.056 19.348 351.776 19.348C352.328 19.348 352.856 19.528 353.36 19.888C353.888 20.224 354.152 20.704 354.152 21.328C354.152 22 353.936 22.504 353.504 22.84C353.072 23.176 352.544 23.368 351.92 23.416L342.164 23.92C342.14 24.856 342.056 25.924 341.912 27.124C341.792 28.3 341.696 29.44 341.624 30.544C342.632 30.208 343.664 29.932 344.72 29.716C345.776 29.5 346.844 29.392 347.924 29.392C348.668 29.392 349.448 29.464 350.264 29.608C351.08 29.752 351.848 29.992 352.568 30.328C353.288 30.664 353.864 31.132 354.296 31.732C354.752 32.332 354.98 33.088 354.98 34Z" fill="#524FFF"/>
<g clip-path="url(#clip0_149_128)">
<path d="M209.89 61H0.110107V119H209.89V61Z" fill="white"/>
<path d="M19.5619 103.382L17.3698 99.1694C25.5302 94.8246 32.1697 89.9104 37.2831 84.4163L40.7445 87.6748C35.3112 93.5803 28.2311 98.8214 19.5567 103.388L19.5619 103.382Z" fill="#0C0C0C"/>
<path d="M85.3908 84.6007C84.0273 86.5147 82.7214 88.2073 81.4208 89.6467V103.825H76.6535V94.1813C74.5242 95.9054 72.1118 97.5031 69.4423 99.0058L67.1243 94.8562C72.2376 91.9509 76.4962 88.3444 79.8946 84.0313H68.7134V79.2436H76.0819V76.1802H80.8439V79.2436H88.9099C87.1635 81.9591 85.9887 83.7465 85.3856 84.606L85.3908 84.6007ZM89.2036 98.526L83.5186 93.8333L86.5027 90.1265L92.2192 94.7876L89.2036 98.526Z" fill="#0C0C0C"/>
<path d="M121.352 100.73L117.162 98.4944L121.609 90.0949L125.8 92.3306L121.352 100.73ZM143.175 82.6235V86.6782H133.042V104.368H128.28V86.6782H118.468V81.8906H128.28V76.7813H133.042V81.8906H138.444C137.81 81.1893 137.49 80.3562 137.49 79.4018C137.49 78.3473 137.872 77.4562 138.601 76.718C139.33 75.9851 140.191 75.6318 141.239 75.6318C142.288 75.6318 143.175 75.9851 143.909 76.718C144.638 77.4509 144.989 78.3473 144.989 79.4018C144.989 80.8044 144.386 81.8906 143.18 82.6287L143.175 82.6235ZM140.663 100.73L136.215 92.3306L140.406 90.0949L144.853 98.4944L140.663 100.73ZM142.535 78.0889C142.183 77.7357 141.743 77.5458 141.234 77.5458C140.725 77.5458 140.28 77.7357 139.934 78.0889C139.582 78.4422 139.393 78.8851 139.393 79.3966C139.393 79.908 139.582 80.3562 139.934 80.7042C140.285 81.0575 140.725 81.2473 141.234 81.2473C141.743 81.2473 142.189 81.0575 142.535 80.7042C142.886 80.3509 143.075 79.908 143.075 79.3966C143.075 78.8851 142.886 78.4369 142.535 78.0889Z" fill="#0C0C0C"/>
<path d="M177.384 90.4006L170.525 89.093L171.416 84.4003L178.276 85.6762L177.384 90.4006ZM173.226 103.524L171.033 99.3115C179.194 94.9668 185.833 90.0526 190.947 84.5584L194.408 87.817C188.975 93.7224 181.895 98.9635 173.226 103.53V103.524ZM178.816 82.7657L171.956 81.4581L172.816 76.7653L179.676 78.0413L178.816 82.7657ZM192.027 80.9783L189.74 78.7743L187.517 81.0732L185.262 78.8692L187.485 76.5703L189.74 78.7743L191.964 76.4753L194.219 78.6793L192.027 80.9783Z" fill="#0C0C0C"/>
<path d="M54.8626 118.815H0V61H54.8626V118.815ZM51.8418 108.317V71.498H3.01558V108.312H51.8418V108.317ZM33.3864 63.8262V68.6929H36.6433V63.8262H33.3864ZM40.9805 63.8262V68.6929H44.2373V63.8262H40.9805ZM25.7924 63.8262V68.6929H29.0492V63.8262H25.7924ZM18.2036 63.8262V68.6929H21.4605V63.8262H18.2036ZM10.6096 63.8262V68.6929H13.8664V63.8262H10.6096ZM3.02083 63.8262V68.6929H6.27766V63.8262H3.02083ZM51.8261 63.8262H48.5692V68.6929H51.8261V63.8262ZM33.3864 110.769V115.989H36.6433V110.769H33.3864ZM51.8261 110.769H48.5692V115.989H51.8261V110.769ZM44.2373 110.769H40.9805V115.989H44.2373V110.769ZM25.7924 110.769V115.989H29.0492V110.769H25.7924ZM18.2036 110.769V115.989H21.4605V110.769H18.2036ZM10.6096 110.769V115.989H13.8664V110.769H10.6096ZM3.02083 110.769V115.989H6.27766V110.769H3.02083Z" fill="#0C0C0C"/>
<path d="M106.573 118.815H51.7107V61H106.573V118.815ZM103.558 108.317V71.498H54.7315V108.312H103.558V108.317ZM85.1024 63.8262V68.6929H88.3592V63.8262H85.1024ZM92.6912 63.8262V68.6929H95.948V63.8262H92.6912ZM77.5084 63.8262V68.6929H80.7652V63.8262H77.5084ZM69.9143 63.8262V68.6929H73.1712V63.8262H69.9143ZM62.3255 63.8262V68.6929H65.5824V63.8262H62.3255ZM54.7315 63.8262V68.6929H57.9884V63.8262H54.7315ZM103.542 63.8262H100.285V68.6929H103.542V63.8262ZM85.1024 110.769V115.989H88.3592V110.769H85.1024ZM103.542 110.769H100.285V115.989H103.542V110.769ZM95.948 110.769H92.6912V115.989H95.948V110.769ZM77.5084 110.769V115.989H80.7652V110.769H77.5084ZM69.9143 110.769V115.989H73.1712V110.769H69.9143ZM62.3255 110.769V115.989H65.5824V110.769H62.3255ZM54.7315 110.769V115.989H57.9884V110.769H54.7315Z" fill="#0C0C0C"/>
<path d="M158.289 118.815H103.427V61H158.289V118.815ZM155.268 108.317V71.498H106.442V108.312H155.268V108.317ZM136.813 63.8262V68.6929H140.07V63.8262H136.813ZM144.407 63.8262V68.6929H147.664V63.8262H144.407ZM129.219 63.8262V68.6929H132.476V63.8262H129.219ZM121.63 63.8262V68.6929H124.887V63.8262H121.63ZM114.036 63.8262V68.6929H117.293V63.8262H114.036ZM106.447 63.8262V68.6929H109.704V63.8262H106.447ZM155.253 63.8262H151.996V68.6929H155.253V63.8262ZM136.813 110.769V115.989H140.07V110.769H136.813ZM155.253 110.769H151.996V115.989H155.253V110.769ZM147.664 110.769H144.407V115.989H147.664V110.769ZM129.219 110.769V115.989H132.476V110.769H129.219ZM121.63 110.769V115.989H124.887V110.769H121.63ZM114.036 110.769V115.989H117.293V110.769H114.036ZM106.447 110.769V115.989H109.704V110.769H106.447Z" fill="#0C0C0C"/>
<path d="M210 118.815H155.137V61H210V118.815ZM206.985 108.317V71.498H158.158V108.312H206.985V108.317ZM188.529 63.8262V68.6929H191.786V63.8262H188.529ZM196.118 63.8262V68.6929H199.375V63.8262H196.118ZM180.935 63.8262V68.6929H184.192V63.8262H180.935ZM173.341 63.8262V68.6929H176.598V63.8262H173.341ZM165.752 63.8262V68.6929H169.009V63.8262H165.752ZM158.158 63.8262V68.6929H161.415V63.8262H158.158ZM206.969 63.8262H203.712V68.6929H206.969V63.8262ZM188.529 110.769V115.989H191.786V110.769H188.529ZM206.969 110.769H203.712V115.989H206.969V110.769ZM199.375 110.769H196.118V115.989H199.375V110.769ZM180.935 110.769V115.989H184.192V110.769H180.935ZM173.341 110.769V115.989H176.598V110.769H173.341ZM165.752 110.769V115.989H169.009V110.769H165.752ZM158.158 110.769V115.989H161.415V110.769H158.158Z" fill="#0C0C0C"/>
<path d="M23.5897 84.4847C25.5506 84.4847 27.1402 82.8866 27.1402 80.9151C27.1402 78.9436 25.5506 77.3455 23.5897 77.3455C21.6288 77.3455 20.0392 78.9436 20.0392 80.9151C20.0392 82.8866 21.6288 84.4847 23.5897 84.4847Z" stroke="#0C0C0C" stroke-width="2.54" stroke-miterlimit="10"/>
<path d="M23.5897 77.3455V84.4847" stroke="#0C0C0C" stroke-width="2.54" stroke-miterlimit="10"/>
<path d="M20.5165 82.6973L26.663 79.1277" stroke="#0C0C0C" stroke-width="2.54" stroke-miterlimit="10"/>
<path d="M26.663 82.6973L20.5165 79.1277" stroke="#0C0C0C" stroke-width="2.54" stroke-miterlimit="10"/>
<path d="M19.3942 91.0546C21.355 91.0546 22.9447 89.4564 22.9447 87.4849C22.9447 85.5135 21.355 83.9153 19.3942 83.9153C17.4333 83.9153 15.8436 85.5135 15.8436 87.4849C15.8436 89.4564 17.4333 91.0546 19.3942 91.0546Z" stroke="#0C0C0C" stroke-width="2.54" stroke-miterlimit="10"/>
<path d="M19.3942 83.9153V91.0546" stroke="#0C0C0C" stroke-width="2.54" stroke-miterlimit="10"/>
<path d="M16.3209 89.2723L22.4675 85.7026" stroke="#0C0C0C" stroke-width="2.54" stroke-miterlimit="10"/>
<path d="M22.4675 89.2723L16.3209 85.7026" stroke="#0C0C0C" stroke-width="2.54" stroke-miterlimit="10"/>
</g>
<path d="M234.616 106.644C234.616 106.74 234.604 106.812 234.58 106.86C234.268 107.532 233.836 108.24 233.284 108.984C232.756 109.728 232.132 110.364 231.412 110.892C230.716 111.396 229.96 111.648 229.144 111.648C228.256 111.648 227.548 111.396 227.02 110.892C226.516 110.388 226.144 109.764 225.904 109.02C225.664 108.252 225.508 107.46 225.436 106.644C225.388 105.828 225.364 105.108 225.364 104.484C225.364 103.764 225.364 103.104 225.364 102.504C225.364 101.88 225.364 101.22 225.364 100.524C225.388 99.828 225.424 99.012 225.472 98.076C225.568 96.348 225.664 94.62 225.76 92.892C225.856 91.14 225.976 89.4 226.12 87.672L230.476 87.888C230.164 90.936 229.912 93.972 229.72 96.996C229.552 99.996 229.468 103.032 229.468 106.104C229.468 106.32 229.468 106.56 229.468 106.824C229.492 107.088 229.54 107.352 229.612 107.616C229.708 107.952 229.84 108.24 230.008 108.48C230.2 108.72 230.428 108.84 230.692 108.84C231.1 108.84 231.508 108.72 231.916 108.48C232.324 108.216 232.696 107.928 233.032 107.616C233.392 107.28 233.668 106.992 233.86 106.752C234.076 106.488 234.244 106.356 234.364 106.356C234.436 106.356 234.496 106.392 234.544 106.464C234.592 106.536 234.616 106.596 234.616 106.644ZM252.76 104.124C252.76 104.676 252.532 105.18 252.076 105.636C251.62 106.092 251.032 106.5 250.312 106.86C249.616 107.22 248.86 107.52 248.044 107.76C247.252 108 246.496 108.192 245.776 108.336C245.08 108.456 244.516 108.516 244.084 108.516C242.068 108.516 240.388 107.988 239.044 106.932C237.7 105.852 236.932 104.28 236.74 102.216C236.812 102.192 237.016 102.132 237.352 102.036C237.688 101.94 238.06 101.832 238.468 101.712C238.876 101.568 239.26 101.448 239.62 101.352C239.98 101.232 240.232 101.148 240.376 101.1C240.472 102.012 240.7 102.876 241.06 103.692C241.444 104.484 241.984 105.132 242.68 105.636C243.376 106.14 244.228 106.392 245.236 106.392C245.932 106.392 246.616 106.332 247.288 106.212C247.96 106.068 248.62 105.9 249.268 105.708C249.004 105.54 248.788 105.3 248.62 104.988C248.476 104.676 248.404 104.364 248.404 104.052C248.404 103.572 248.656 103.14 249.16 102.756C249.664 102.372 250.144 102.18 250.6 102.18C251.08 102.18 251.56 102.372 252.04 102.756C252.544 103.14 252.796 103.572 252.796 104.052L252.76 104.124ZM249.484 89.724C249.484 90.18 249.292 90.768 248.908 91.488C248.644 91.968 248.308 92.436 247.9 92.892C247.516 93.348 247.132 93.732 246.748 94.044C246.364 94.332 246.016 94.476 245.704 94.476C245.608 94.476 245.5 94.452 245.38 94.404C245.284 94.332 245.236 94.236 245.236 94.116C245.236 93.612 245.248 93.108 245.272 92.604C245.32 92.1 245.356 91.596 245.38 91.092H237.496C237.496 90.228 237.496 89.736 237.496 89.616C237.496 89.472 237.496 89.4 237.496 89.4C239.416 89.4 241.336 89.4 243.256 89.4C245.2 89.376 247.132 89.364 249.052 89.364C249.34 89.364 249.484 89.484 249.484 89.724ZM394.816 97.272C394.816 98.296 394.608 99.288 394.192 100.248C393.776 101.208 393.248 102.104 392.608 102.936C391.328 104.696 389.792 106.264 388 107.64C386.24 108.984 384.32 110.056 382.24 110.856C380.16 111.624 378.016 112.008 375.808 112.008C373.792 112.008 371.92 111.624 370.192 110.856C368.464 110.088 367.072 108.968 366.016 107.496C364.992 105.992 364.48 104.152 364.48 101.976C364.48 97.688 364.512 93.368 364.576 89.016C364.64 84.664 364.688 80.36 364.72 76.104C365.552 76.072 366.352 76.056 367.12 76.056C367.92 76.056 368.72 76.056 369.52 76.056C369.776 76.056 370 76.056 370.192 76.056C370.416 76.056 370.64 76.072 370.864 76.104C370.736 79.56 370.592 83.048 370.432 86.568C370.304 90.056 370.24 93.544 370.24 97.032V100.632C370.24 101.944 370.368 103.208 370.624 104.424C370.88 105.64 371.392 106.648 372.16 107.448C372.96 108.216 374.176 108.6 375.808 108.6C377.216 108.6 378.688 108.376 380.224 107.928C381.792 107.48 383.312 106.872 384.784 106.104C386.288 105.304 387.632 104.376 388.816 103.32C390.032 102.264 390.992 101.128 391.696 99.912C391.184 99.784 390.624 99.528 390.016 99.144C389.408 98.728 389.104 98.216 389.104 97.608C389.104 96.744 389.376 96.04 389.92 95.496C390.464 94.92 391.168 94.632 392.032 94.632C392.8 94.632 393.456 94.872 394 95.352C394.544 95.832 394.816 96.472 394.816 97.272ZM439.984 106.776C439.984 107.64 439.68 108.44 439.072 109.176C438.464 109.88 437.712 110.232 436.816 110.232C436.048 110.232 435.376 109.992 434.8 109.512C434.256 109.032 433.984 108.392 433.984 107.592C433.984 106.952 434.24 106.392 434.752 105.912C435.296 105.4 435.872 105.144 436.48 105.144C436.064 104.6 435.44 104.072 434.608 103.56C433.808 103.016 432.912 102.52 431.92 102.072C430.928 101.592 429.952 101.192 428.992 100.872C428.064 100.52 427.264 100.28 426.592 100.152V103.8C426.592 105.56 426.192 107.032 425.392 108.216C424.624 109.4 423.568 110.296 422.224 110.904C420.912 111.48 419.424 111.768 417.76 111.768C416.704 111.768 415.6 111.624 414.448 111.336C413.296 111.08 412.224 110.664 411.232 110.088C410.272 109.512 409.488 108.776 408.88 107.88C408.272 106.952 407.968 105.864 407.968 104.616C407.968 103.304 408.272 102.168 408.88 101.208C409.52 100.248 410.352 99.464 411.376 98.856C412.4 98.216 413.504 97.752 414.688 97.464C415.904 97.144 417.072 96.984 418.192 96.984C418.512 96.984 418.832 97 419.152 97.032C419.472 97.064 419.792 97.112 420.112 97.176V99.528C419.344 99.272 418.592 99.144 417.856 99.144C416.992 99.144 416.08 99.352 415.12 99.768C414.192 100.184 413.408 100.76 412.768 101.496C412.128 102.232 411.808 103.096 411.808 104.088C411.808 104.984 412.064 105.736 412.576 106.344C413.088 106.952 413.728 107.416 414.496 107.736C415.264 108.056 416.048 108.216 416.848 108.216C418.128 108.216 419.088 107.96 419.728 107.448C420.4 106.904 420.848 106.184 421.072 105.288C421.328 104.36 421.456 103.352 421.456 102.264C421.456 101.752 421.456 100.984 421.456 99.96C421.488 98.904 421.504 97.944 421.504 97.08C421.504 93.656 421.488 90.232 421.456 86.808C421.424 83.384 421.408 79.96 421.408 76.536H426.592V84.936L432.496 84.696C432.432 84.504 432.4 84.344 432.4 84.216C432.4 83.512 432.688 82.872 433.264 82.296C433.84 81.688 434.48 81.384 435.184 81.384C436.016 81.384 436.736 81.624 437.344 82.104C437.984 82.584 438.304 83.272 438.304 84.168C438.304 84.968 438.032 85.608 437.488 86.088C436.976 86.536 436.336 86.776 435.568 86.808L426.592 87.096V97.56C427.808 97.784 429.024 98.088 430.24 98.472C431.488 98.824 432.656 99.272 433.744 99.816C434.576 100.232 435.472 100.792 436.432 101.496C437.424 102.168 438.256 102.952 438.928 103.848C439.632 104.744 439.984 105.72 439.984 106.776ZM483.808 94.776C483.808 97.144 483.296 99.352 482.272 101.4C481.248 103.416 479.904 105.24 478.24 106.872C476.768 108.344 475.184 109.528 473.488 110.424C471.792 111.32 469.984 112.12 468.064 112.824C467.744 112.92 467.232 113.08 466.528 113.304C465.856 113.528 465.184 113.736 464.512 113.928C463.84 114.12 463.36 114.216 463.072 114.216C462.944 114.216 462.8 114.168 462.64 114.072C462.48 114.008 462.4 113.896 462.4 113.736C462.4 113.544 462.48 113.384 462.64 113.256C462.8 113.128 462.944 113.048 463.072 113.016C463.712 112.76 464.448 112.44 465.28 112.056C466.112 111.672 466.848 111.272 467.488 110.856C469.344 109.672 471.056 108.28 472.624 106.68C474.224 105.048 475.504 103.224 476.464 101.208C477.424 99.192 477.904 97.048 477.904 94.776C477.904 93.688 477.728 92.584 477.376 91.464C477.056 90.312 476.512 89.352 475.744 88.584C474.976 87.816 473.936 87.432 472.624 87.432C471.728 87.432 470.656 87.688 469.408 88.2C468.192 88.712 466.992 89.336 465.808 90.072C464.656 90.776 463.728 91.416 463.024 91.992C462.864 92.12 462.688 92.248 462.496 92.376C462.304 92.504 462.08 92.568 461.824 92.568C461.504 92.568 461.28 92.472 461.152 92.28C461.056 92.056 460.976 91.832 460.912 91.608C460.752 91.064 460.64 90.472 460.576 89.832C460.544 89.192 460.496 88.584 460.432 88.008C462.416 87.048 464.448 86.296 466.528 85.752C468.608 85.208 470.752 84.936 472.96 84.936C476.192 84.936 478.8 85.72 480.784 87.288C482.8 88.856 483.808 91.352 483.808 94.776ZM477.52 80.904C477.52 81.192 477.36 81.368 477.04 81.432C476.72 81.464 476.464 81.48 476.272 81.48C475.536 81.48 474.8 81.432 474.064 81.336C473.36 81.208 472.64 81.064 471.904 80.904C471.648 80.84 471.136 80.68 470.368 80.424C469.632 80.168 468.832 79.88 467.968 79.56C467.136 79.208 466.416 78.872 465.808 78.552C465.2 78.2 464.896 77.896 464.896 77.64C464.896 77.544 465.024 77.32 465.28 76.968C465.536 76.584 465.84 76.184 466.192 75.768C466.576 75.32 466.928 74.92 467.248 74.568C467.568 74.216 467.776 73.992 467.872 73.896C468.128 73.704 468.4 73.608 468.688 73.608C468.88 73.608 469.04 73.656 469.168 73.752C469.392 73.88 469.68 74.136 470.032 74.52C470.384 74.872 470.656 75.144 470.848 75.336C471.648 76.232 472.528 77.048 473.488 77.784C474.48 78.488 475.472 79.16 476.464 79.8C476.656 79.928 476.88 80.072 477.136 80.232C477.392 80.392 477.52 80.616 477.52 80.904ZM523.264 109.368C523.264 110.456 522.88 111.384 522.112 112.152C521.344 112.92 520.416 113.304 519.328 113.304C518.24 113.304 517.312 112.92 516.544 112.152C515.776 111.384 515.392 110.456 515.392 109.368C515.392 108.28 515.776 107.352 516.544 106.584C517.312 105.816 518.24 105.432 519.328 105.432C520.416 105.432 521.344 105.816 522.112 106.584C522.88 107.352 523.264 108.28 523.264 109.368ZM524.704 77.16C524.704 77.736 524.624 78.472 524.464 79.368C524.304 80.264 524.112 81.176 523.888 82.104C523.696 83.032 523.552 83.832 523.456 84.504C523.232 86.04 522.976 87.576 522.688 89.112C522.4 90.648 522.128 92.184 521.872 93.72C521.744 94.456 521.648 95.192 521.584 95.928C521.52 96.664 521.424 97.4 521.296 98.136C521.2 98.744 521.12 99.352 521.056 99.96C520.992 100.568 520.88 101.16 520.72 101.736C520.528 102.6 520.016 103.032 519.184 103.032C518.64 103.032 518.256 102.824 518.032 102.408C517.84 101.96 517.728 101.448 517.696 100.872C517.696 100.296 517.68 99.832 517.648 99.48C517.52 96.856 517.392 94.248 517.264 91.656C517.168 89.032 516.992 86.424 516.736 83.832C516.64 82.776 516.512 81.72 516.352 80.664C516.224 79.608 516.16 78.552 516.16 77.496C516.16 75.992 516.544 74.904 517.312 74.232C518.112 73.56 519.248 73.224 520.72 73.224C521.84 73.224 522.784 73.608 523.552 74.376C524.32 75.112 524.704 76.04 524.704 77.16Z" fill="#0C0C0C"/>
<path d="M270.4 100.68H265.792V111.72H267.136C268.224 111.72 268.992 111.464 269.44 110.952C269.888 110.44 270.16 109.784 270.256 108.984C270.352 108.184 270.4 107.368 270.4 106.536V100.68ZM275.728 107.64C275.728 109.336 275.44 110.616 274.864 111.48C274.288 112.344 273.456 112.936 272.368 113.256C271.28 113.576 269.968 113.768 268.432 113.832C267.92 113.864 267.408 113.88 266.896 113.88C266.384 113.88 265.856 113.88 265.312 113.88H260.32V98.712H275.728V107.64ZM275.728 92.472C275.728 93.112 275.472 93.608 274.96 93.96C274.448 94.312 273.904 94.488 273.328 94.488H260.896V92.136H271.024C271.088 91.592 271.36 91.144 271.84 90.792C272.352 90.44 272.864 90.264 273.376 90.264C273.952 90.264 274.48 90.488 274.96 90.936C275.472 91.384 275.728 91.896 275.728 92.472ZM275.728 86.28C275.728 86.92 275.472 87.416 274.96 87.768C274.448 88.12 273.904 88.296 273.328 88.296H260.896V85.944H271.024C271.088 85.4 271.36 84.952 271.84 84.6C272.352 84.248 272.864 84.072 273.376 84.072C273.952 84.072 274.48 84.296 274.96 84.744C275.472 85.192 275.728 85.704 275.728 86.28ZM278.08 79.704C278.08 80.376 277.824 80.92 277.312 81.336C276.832 81.72 276.272 81.912 275.632 81.912C272.624 81.912 269.632 81.912 266.656 81.912C263.68 81.88 260.688 81.864 257.68 81.864V79.608H266.368C266.112 78.296 265.856 77 265.6 75.72C265.344 74.44 265.088 73.16 264.832 71.88C265.152 71.88 265.664 71.896 266.368 71.928C267.104 71.928 267.888 71.944 268.72 71.976C269.552 71.976 270.288 72.008 270.928 72.072C271.6 72.136 272.032 72.216 272.224 72.312C272.448 72.44 272.56 72.632 272.56 72.888C272.56 73.048 272.448 73.432 272.224 74.04C272 74.648 271.728 75.336 271.408 76.104C271.12 76.872 270.832 77.592 270.544 78.264C270.256 78.904 270.064 79.352 269.968 79.608H273.328C273.328 79.064 273.584 78.584 274.096 78.168C274.64 77.752 275.168 77.544 275.68 77.544C276.32 77.544 276.88 77.736 277.36 78.12C277.84 78.504 278.08 79.032 278.08 79.704ZM303.376 107.16C303.376 107.672 303.2 108.216 302.848 108.792C302.528 109.368 302.192 109.832 301.84 110.184C300.784 111.176 299.552 111.96 298.144 112.536C296.736 113.144 295.264 113.576 293.728 113.832C292.192 114.088 290.72 114.216 289.312 114.216C287.456 114.216 285.776 113.928 284.272 113.352C282.8 112.776 281.632 111.864 280.768 110.616C279.904 109.368 279.472 107.736 279.472 105.72C279.472 103.128 279.504 100.536 279.568 97.944C279.632 95.352 279.68 92.744 279.712 90.12H289.696C290.336 90.12 290.848 89.896 291.232 89.448C291.616 89 291.808 88.488 291.808 87.912V78.12H278.272V75.768H297.664V87.528C297.664 88.936 297.328 89.992 296.656 90.696C295.984 91.368 295.12 91.8 294.064 91.992C293.04 92.184 291.952 92.28 290.8 92.28H285.28C285.216 94.328 285.152 96.408 285.088 98.52C285.024 100.6 284.992 102.68 284.992 104.76C284.992 106.872 285.488 108.392 286.48 109.32C287.472 110.248 288.992 110.712 291.04 110.712C292.352 110.712 293.68 110.616 295.024 110.424C296.4 110.232 297.68 109.912 298.864 109.464C298.384 109.304 298.016 109 297.76 108.552C297.504 108.072 297.376 107.592 297.376 107.112C297.376 106.344 297.712 105.688 298.384 105.144C299.056 104.568 299.76 104.28 300.496 104.28C301.232 104.28 301.888 104.584 302.464 105.192C303.072 105.768 303.376 106.424 303.376 107.16ZM311.824 103.56C311.824 103.848 311.744 104.12 311.584 104.376C311.456 104.632 311.216 104.76 310.864 104.76C310.608 104.76 310.352 104.632 310.096 104.376C309.84 104.12 309.6 103.832 309.376 103.512C309.152 103.192 308.912 102.888 308.656 102.6C308.144 101.928 307.616 101.256 307.072 100.584C306.56 99.912 306.032 99.24 305.488 98.568C305.776 98.44 306.24 98.216 306.88 97.896C307.552 97.576 308.208 97.288 308.848 97.032C309.52 96.744 309.968 96.6 310.192 96.6C310.672 96.6 310.976 96.824 311.104 97.272C311.232 97.624 311.344 98.232 311.44 99.096C311.536 99.928 311.616 100.776 311.68 101.64C311.776 102.504 311.824 103.144 311.824 103.56ZM332.272 101.88C332.272 102.072 332.224 102.264 332.128 102.456C332.032 102.648 331.936 102.824 331.84 102.984C331.2 104.04 330.384 105.16 329.392 106.344C328.4 107.496 327.328 108.568 326.176 109.56C325.024 110.552 323.888 111.288 322.768 111.768L319.36 107.688C320.384 107.272 321.376 106.84 322.336 106.392C323.328 105.944 324.304 105.496 325.264 105.048C326.608 104.408 327.92 103.704 329.2 102.936C329.52 102.776 329.888 102.584 330.304 102.36C330.72 102.104 331.04 101.896 331.264 101.736C331.36 101.672 331.456 101.624 331.552 101.592C331.68 101.528 331.808 101.496 331.936 101.496C332.16 101.496 332.272 101.624 332.272 101.88ZM324.496 98.52C324.496 98.712 324.192 99.096 323.584 99.672C323.008 100.248 322.32 100.856 321.52 101.496C320.752 102.104 320.064 102.6 319.456 102.984C319.104 103.208 318.848 103.224 318.688 103.032C318.528 102.84 318.464 102.68 318.496 102.552C318.848 101.432 319.12 100.424 319.312 99.528C319.536 98.6 319.76 97.56 319.984 96.408C320.144 96.472 320.464 96.584 320.944 96.744C321.424 96.904 321.936 97.096 322.48 97.32C323.024 97.512 323.488 97.72 323.872 97.944C324.288 98.168 324.496 98.36 324.496 98.52ZM325.456 83.112C325.456 83.464 325.232 83.64 324.784 83.64C324.464 83.64 324.048 83.496 323.536 83.208C323.056 82.888 322.592 82.52 322.144 82.104C321.248 81.336 320.4 80.472 319.6 79.512C318.8 78.52 318.224 77.784 317.872 77.304C317.648 77.528 317.392 77.784 317.104 78.072C316.816 78.36 316.512 78.696 316.192 79.08C315.456 80.264 314.688 81.384 313.888 82.44C313.12 83.464 312.24 84.472 311.248 85.464H318.64C318.736 84.92 318.976 84.472 319.36 84.12C319.776 83.768 320.24 83.592 320.752 83.592C321.264 83.592 321.728 83.8 322.144 84.216C322.56 84.632 322.768 85.096 322.768 85.608C322.768 86.088 322.592 86.504 322.24 86.856C321.888 87.208 321.472 87.384 320.992 87.384H318.112V92.472H319.504C319.6 91.928 319.824 91.464 320.176 91.08C320.56 90.664 321.056 90.456 321.664 90.456C322.176 90.456 322.656 90.664 323.104 91.08C323.584 91.464 323.824 91.928 323.824 92.472C323.824 92.952 323.648 93.384 323.296 93.768C322.944 94.152 322.528 94.344 322.048 94.344H318.112V104.664C318.368 104.6 318.816 104.488 319.456 104.328C320.096 104.136 320.736 103.944 321.376 103.752C321.824 103.624 322.24 103.496 322.624 103.368C323.008 103.24 323.2 103.176 323.2 103.176C323.296 103.176 323.376 103.176 323.44 103.176C323.536 103.176 323.584 103.24 323.584 103.368C323.584 103.496 323.488 103.672 323.296 103.896C323.104 104.12 322.96 104.28 322.864 104.376C320.56 106.392 318.048 107.992 315.328 109.176C312.608 110.328 309.824 111.352 306.976 112.248L304.672 107.832C306.08 107.576 307.488 107.272 308.896 106.92C310.336 106.568 311.744 106.232 313.12 105.912V94.344H305.824V92.472H313.12V87.384H309.424C309.232 87.576 308.928 87.816 308.512 88.104C308.096 88.392 307.664 88.68 307.216 88.968C306.704 89.288 306.144 89.576 305.536 89.832C304.96 90.056 304.608 90.168 304.48 90.168C304.192 90.168 304.048 90.04 304.048 89.784C304.048 89.72 304.08 89.64 304.144 89.544C304.24 89.448 304.32 89.352 304.384 89.256C304.48 89.128 304.608 88.984 304.768 88.824C304.928 88.632 305.04 88.488 305.104 88.392C305.648 87.752 306.144 87.08 306.592 86.376C307.072 85.64 307.552 84.856 308.032 84.024C309.184 81.944 310.208 79.736 311.104 77.4C312.032 75.032 312.72 72.888 313.168 70.968L318.976 72.696C318.848 73.048 318.672 73.464 318.448 73.944C318.256 74.392 318.08 74.792 317.92 75.144C318.144 75.016 318.496 74.824 318.976 74.568C319.488 74.312 319.984 74.088 320.464 73.896C320.976 73.672 321.344 73.56 321.568 73.56C321.856 73.56 322.048 73.624 322.144 73.752C322.24 73.88 322.32 74.072 322.384 74.328C322.544 74.744 322.704 75.224 322.864 75.768C323.024 76.28 323.184 76.792 323.344 77.304C323.6 78.168 323.872 79.016 324.16 79.848C324.448 80.648 324.784 81.464 325.168 82.296C325.232 82.392 325.296 82.52 325.36 82.68C325.424 82.84 325.456 82.984 325.456 83.112ZM331.648 99.336C331.648 99.752 331.456 99.96 331.072 99.96C330.912 99.96 330.704 99.896 330.448 99.768C329.264 99.192 328.096 98.616 326.944 98.04C325.792 97.432 324.608 96.872 323.392 96.36C323.456 96.296 323.536 96.2 323.632 96.072C323.76 95.944 323.888 95.816 324.016 95.688C324.368 95.336 324.752 94.936 325.168 94.488C325.616 94.008 325.984 93.624 326.272 93.336C326.592 93.016 326.864 92.856 327.088 92.856C327.216 92.856 327.36 92.888 327.52 92.952C327.68 93.016 327.872 93.16 328.096 93.384C328.608 93.864 329.136 94.52 329.68 95.352C330.224 96.184 330.688 96.984 331.072 97.752C331.456 98.488 331.648 99.016 331.648 99.336ZM351.808 109.56C351.808 110.104 351.6 110.584 351.184 111C350.768 111.448 350.288 111.672 349.744 111.672C348.464 111.672 347.216 111.272 346 110.472C344.816 109.64 343.712 108.6 342.688 107.352C341.664 106.104 340.768 104.824 340 103.512C339.232 102.168 338.624 100.984 338.176 99.96V109.224C338.176 110.312 338.016 111.352 337.696 112.344C337.408 113.336 336.88 114.136 336.112 114.744C335.376 115.384 334.352 115.704 333.04 115.704C332.496 115.704 331.84 115.496 331.072 115.08C330.336 114.696 329.616 114.232 328.912 113.688C328.24 113.176 327.696 112.744 327.28 112.392C327.024 112.168 326.768 111.928 326.512 111.672C326.256 111.448 326.032 111.256 325.84 111.096C325.776 111.032 325.744 110.952 325.744 110.856C325.744 110.792 325.824 110.76 325.984 110.76C326.08 110.76 326.16 110.776 326.224 110.808C326.928 111 327.664 111.176 328.432 111.336C329.232 111.528 329.984 111.624 330.688 111.624C331.296 111.624 331.744 111.432 332.032 111.048C332.32 110.696 332.496 110.264 332.56 109.752C332.656 109.208 332.704 108.712 332.704 108.264V90.984H323.872V88.872H337.264C337.52 88.744 337.712 88.456 337.84 88.008C338 87.528 338.112 87.048 338.176 86.568C338.24 86.088 338.272 85.768 338.272 85.608V76.152H325.936V73.992H343.984V84.744C343.984 85.352 343.872 86.072 343.648 86.904C343.456 87.736 343.168 88.408 342.784 88.92H346.288C346.288 88.184 346.56 87.56 347.104 87.048C347.648 86.504 348.288 86.232 349.024 86.232C349.664 86.232 350.224 86.504 350.704 87.048C351.216 87.56 351.472 88.136 351.472 88.776C351.472 89.384 351.248 89.912 350.8 90.36C350.352 90.776 349.824 90.984 349.216 90.984H338.176C338.176 92.072 338.176 93.144 338.176 94.2C338.176 95.256 338.176 96.328 338.176 97.416C339.328 96.584 340.464 95.72 341.584 94.824C342.704 93.928 343.776 92.984 344.8 91.992C345.184 92.216 345.664 92.536 346.24 92.952C346.816 93.336 347.376 93.752 347.92 94.2C348.496 94.616 348.928 94.968 349.216 95.256C349.344 95.384 349.408 95.528 349.408 95.688C349.408 95.912 349.248 96.088 348.928 96.216C348.704 96.344 348.464 96.456 348.208 96.552C347.952 96.616 347.696 96.68 347.44 96.744C346.736 96.968 346 97.192 345.232 97.416C344.496 97.64 343.76 97.88 343.024 98.136C343.184 99.224 343.504 100.424 343.984 101.736C344.496 103.016 345.088 104.264 345.76 105.48C346.432 106.696 347.104 107.736 347.776 108.6C348.032 108.248 348.32 107.96 348.64 107.736C348.96 107.512 349.328 107.4 349.744 107.4C350.32 107.4 350.8 107.624 351.184 108.072C351.6 108.52 351.808 109.016 351.808 109.56ZM337.168 81.816C337.168 82.328 336.944 82.792 336.496 83.208C336.048 83.592 335.584 83.784 335.104 83.784H326.656V81.768H332.8C332.8 81.16 333.04 80.664 333.52 80.28C334.032 79.864 334.544 79.656 335.056 79.656C335.696 79.656 336.208 79.896 336.592 80.376C336.976 80.824 337.168 81.304 337.168 81.816Z" fill="#524FFF"/>
<defs>
<clipPath id="clip0_149_128">
<rect width="210" height="58" fill="white" transform="translate(0 61)"/>
</clipPath>
</defs>
</svg>
