<svg width="1440" height="638" viewBox="0 0 1440 638" fill="none" xmlns="http://www.w3.org/2000/svg">
<mask id="mask0_98_467" style="mask-type:luminance" maskUnits="userSpaceOnUse" x="0" y="-13" width="1441" height="651">
<path d="M1440 -13H0V637.171H1440V-13Z" fill="white"/>
</mask>
<g mask="url(#mask0_98_467)">
<path d="M1214.83 98.9586C1214.83 98.9586 1003.68 259.999 723.641 83.4972L928.851 -46.3572L1081.1 81.4795L1214.83 98.9586Z" fill="url(#paint0_linear_98_467)"/>
<path d="M759.367 51.9382C759.367 51.9382 850.622 150.782 1048.31 139.794C1048.31 139.794 867.312 189.447 735.33 67.1585L759.367 51.9382Z" fill="#E8352F"/>
<path d="M1181.39 100.582C1181.39 100.582 986.552 206.443 780.289 99.1122C780.289 99.1122 1001.79 203.658 1192.49 103.805L1181.39 100.582Z" fill="#7F0000"/>
<path d="M1103.73 118.148C1103.73 118.148 903.498 179.972 748.489 52.1137L777.35 33.845C777.35 33.845 869.176 152.471 1103.73 118.148Z" fill="#7F0000"/>
<path d="M818.669 14.4141C818.669 14.4141 918.982 118.719 1098.49 67.7726C1098.49 67.7726 955.015 142.887 801.036 25.577L818.669 14.4141Z" fill="#7F0000"/>
<path d="M866.434 -9.09625C866.434 -9.09625 889.725 52.2233 1025.7 64.6144C1025.7 64.6144 927.03 82.3128 845.709 1.7816L866.434 -9.09625Z" fill="#A5011F"/>
<path d="M1113.49 75.9966C1113.49 75.9966 1070.53 130.21 887.883 89.1773C887.883 89.1773 1024.97 143.435 1129.37 92.752L1113.49 75.9966Z" fill="#A5011F"/>
<path d="M278.285 98.9586C278.285 98.9586 489.438 259.999 769.477 83.4972L564.267 -46.3572L412.021 81.4795L278.285 98.9586Z" fill="url(#paint1_linear_98_467)"/>
<path d="M733.751 51.9382C733.751 51.9382 642.495 150.782 444.808 139.794C444.808 139.794 625.806 189.447 757.788 67.1585L733.751 51.9382Z" fill="#E8352F"/>
<path d="M311.73 100.582C311.73 100.582 506.566 206.443 712.829 99.1122C712.829 99.1122 491.324 203.658 300.633 103.805L311.73 100.582Z" fill="#7F0000"/>
<path d="M389.388 118.148C389.388 118.148 589.619 179.972 744.629 52.1137L715.767 33.845C715.767 33.845 623.942 152.471 389.388 118.148Z" fill="#7F0000"/>
<path d="M674.449 14.4141C674.449 14.4141 574.136 118.719 394.629 67.7726C394.629 67.7726 538.103 142.887 692.082 25.577L674.449 14.4141Z" fill="#7F0000"/>
<path d="M626.683 -9.09625C626.683 -9.09625 603.392 52.2233 467.419 64.6144C467.419 64.6144 566.088 82.3128 647.408 1.7816L626.683 -9.09625Z" fill="#A5011F"/>
<path d="M379.628 75.9966C379.628 75.9966 422.592 130.21 605.234 89.1773C605.234 89.1773 468.143 143.435 363.75 92.752L379.628 75.9966Z" fill="#A5011F"/>
<path d="M1116.6 -21.4654C1116.6 -21.4654 866.281 232.629 460.51 50.9074L708.815 -160.575L935.452 -19.382L1116.6 -21.4654Z" fill="url(#paint2_linear_98_467)"/>
<path d="M502.048 2.17639C502.048 2.17639 642.1 116.35 902.884 64.3074C902.884 64.3074 671.598 164.577 472.945 26.9586L502.048 2.17639Z" fill="#E8352F"/>
<path d="M1072.43 -13C1072.43 -13 833.384 164.642 538.783 60.9519C538.783 60.9519 853.122 158.063 1087.79 -10.8069L1072.43 -13Z" fill="#7F0000"/>
<path d="M972.494 25.0726C972.494 25.0726 717.939 145.168 487.64 4.4792L522.554 -25.2595C522.554 -25.2595 667.102 115.1 972.494 25.0726Z" fill="#7F0000"/>
<path d="M573.829 -58.9457C573.829 -58.9457 726.952 60.7765 956.001 -40.9403C956.001 -40.9403 779.433 86.107 552.49 -40.7648L573.829 -58.9457Z" fill="#7F0000"/>
<path d="M977.494 -32.8257C977.494 -32.8257 930.627 47.3765 679.998 27.3972C679.998 27.3972 872.575 73.6062 1001.77 -13.5483L977.494 -32.8257Z" fill="#A5011F"/>
<path d="M326.774 -19.5794C326.774 -19.5794 291.684 243.595 0 267.719V-13.0001L326.774 -19.5794Z" fill="url(#paint3_linear_98_467)"/>
<path d="M-8.77246 210.698C-8.77246 210.698 144.746 228.243 256.595 61.5659C256.595 61.5659 192.994 250.174 -8.77246 243.595V210.698Z" fill="#E8352F"/>
<path d="M298.264 -26.1587C298.264 -26.1587 250.015 177.801 50.4417 237.015C50.4417 237.015 258.788 199.732 322.388 -39.3174L298.264 -26.1587Z" fill="#7F0000"/>
<path d="M269.753 -2.03442C269.753 -2.03442 206.153 212.891 -15.3518 219.47V179.994C-15.3518 179.994 157.904 215.084 269.753 -2.03442Z" fill="#7F0000"/>
<path d="M-8.77246 129.553C-8.77246 129.553 155.711 144.904 217.118 -43.7037C217.118 -43.7037 201.767 138.325 -8.77246 153.677V129.553Z" fill="#7F0000"/>
<path d="M-2.19311 70.3384C-2.19311 70.3384 72.3728 107.621 168.87 11.1243C168.87 11.1243 125.008 105.428 -4.38623 96.6558L-2.19311 70.3384Z" fill="#A5011F"/>
<path d="M234.488 -48.0899C234.488 -48.0899 260.981 35.2485 107.463 142.711C107.463 142.711 245.717 83.3874 260.761 -45.4362L234.488 -48.0899Z" fill="#A5011F"/>
<path d="M1113.23 -19.5794C1113.23 -19.5794 1148.32 243.595 1440 267.719V-13.0001L1113.23 -19.5794Z" fill="url(#paint4_linear_98_467)"/>
<path d="M1448.77 210.698C1448.77 210.698 1295.25 228.243 1183.41 61.5659C1183.41 61.5659 1247.01 250.174 1448.77 243.595V210.698Z" fill="#E8352F"/>
<path d="M1141.74 -26.1587C1141.74 -26.1587 1189.98 177.801 1389.56 237.015C1389.56 237.015 1181.21 199.732 1117.61 -39.3174L1141.74 -26.1587Z" fill="#7F0000"/>
<path d="M1170.25 -2.03442C1170.25 -2.03442 1233.85 212.891 1455.35 219.47V179.994C1455.35 179.994 1282.1 215.084 1170.25 -2.03442Z" fill="#7F0000"/>
<path d="M1448.77 129.553C1448.77 129.553 1284.29 144.904 1222.88 -43.7037C1222.88 -43.7037 1238.23 138.325 1448.77 153.677V129.553Z" fill="#7F0000"/>
<path d="M1442.19 70.3384C1442.19 70.3384 1367.63 107.621 1271.13 11.1243C1271.13 11.1243 1314.99 105.428 1444.39 96.6558L1442.19 70.3384Z" fill="#A5011F"/>
<path d="M1205.51 -48.0899C1205.51 -48.0899 1179.02 35.2485 1332.54 142.711C1332.54 142.711 1194.28 83.3874 1179.24 -45.4362L1205.51 -48.0899Z" fill="#A5011F"/>
<path d="M642.89 -21.4654C642.89 -21.4654 392.568 232.629 -13.2026 50.9074L235.102 -160.575L461.739 -19.382L642.89 -21.4654Z" fill="url(#paint5_linear_98_467)"/>
<path d="M28.3351 2.17639C28.3351 2.17639 168.387 116.35 429.171 64.3074C429.171 64.3074 197.885 164.577 -0.767578 26.9586L28.3351 2.17639Z" fill="#E8352F"/>
<path d="M598.721 -13C598.721 -13 359.671 164.642 65.0696 60.9519C65.0696 60.9519 379.409 158.063 614.072 -10.8069L598.721 -13Z" fill="#7F0000"/>
<path d="M498.78 25.0725C498.78 25.0725 244.203 145.168 13.9043 4.45722L48.8187 -25.2814C48.8187 -25.2814 193.367 115.1 498.78 25.0725Z" fill="#7F0000"/>
<path d="M100.116 -58.9457C100.116 -58.9457 253.239 60.7765 482.288 -40.9403C482.288 -40.9403 305.72 86.107 78.7766 -40.7648L100.116 -58.9457Z" fill="#7F0000"/>
<path d="M503.781 -32.8257C503.781 -32.8257 456.914 47.3765 206.284 27.3972C206.284 27.3972 398.862 73.6062 528.058 -13.5483L503.781 -32.8257Z" fill="#A5011F"/>
<path d="M865.974 -21.4654C865.974 -21.4654 1116.3 232.629 1522.07 50.9074L1273.76 -160.575L1047.13 -19.382L865.974 -21.4654Z" fill="url(#paint6_linear_98_467)"/>
<path d="M1480.53 2.17639C1480.53 2.17639 1340.48 116.35 1079.69 64.3074C1079.69 64.3074 1310.98 164.577 1509.63 26.9586L1480.53 2.17639Z" fill="#E8352F"/>
<path d="M910.144 -13C910.144 -13 1149.19 164.642 1443.79 60.9519C1443.79 60.9519 1129.46 158.063 894.792 -10.8069L910.144 -13Z" fill="#7F0000"/>
<path d="M1010.08 25.0726C1010.08 25.0726 1264.64 145.168 1494.94 4.4792L1460.02 -25.2595C1460.02 -25.2595 1315.47 115.1 1010.08 25.0726Z" fill="#7F0000"/>
<path d="M1408.75 -58.9457C1408.75 -58.9457 1255.62 60.7765 1026.58 -40.9403C1026.58 -40.9403 1203.14 86.107 1430.09 -40.7648L1408.75 -58.9457Z" fill="#7F0000"/>
<path d="M1005.08 -32.8257C1005.08 -32.8257 1051.95 47.3765 1302.58 27.3972C1302.58 27.3972 1110 73.6062 980.806 -13.5483L1005.08 -32.8257Z" fill="#A5011F"/>
</g>
<defs>
<linearGradient id="paint0_linear_98_467" x1="954.094" y1="167.773" x2="993.984" y2="-33.3443" gradientUnits="userSpaceOnUse">
<stop offset="0.03" stop-color="#790000"/>
<stop offset="0.25" stop-color="#E60012"/>
<stop offset="0.43" stop-color="#B7000A"/>
<stop offset="0.66" stop-color="#790000"/>
<stop offset="0.73" stop-color="#890002"/>
<stop offset="0.86" stop-color="#B40009"/>
<stop offset="0.99" stop-color="#E60012"/>
</linearGradient>
<linearGradient id="paint1_linear_98_467" x1="539" y1="167.596" x2="499.109" y2="-33.5215" gradientUnits="userSpaceOnUse">
<stop offset="0.03" stop-color="#790000"/>
<stop offset="0.25" stop-color="#E60012"/>
<stop offset="0.43" stop-color="#B7000A"/>
<stop offset="0.66" stop-color="#790000"/>
<stop offset="0.73" stop-color="#890002"/>
<stop offset="0.86" stop-color="#B40009"/>
<stop offset="0.99" stop-color="#E60012"/>
</linearGradient>
<linearGradient id="paint2_linear_98_467" x1="782.883" y1="119.344" x2="797.869" y2="-155.639" gradientUnits="userSpaceOnUse">
<stop offset="0.03" stop-color="#790000"/>
<stop offset="0.25" stop-color="#E60012"/>
<stop offset="0.43" stop-color="#B7000A"/>
<stop offset="0.66" stop-color="#790000"/>
<stop offset="0.73" stop-color="#890002"/>
<stop offset="0.86" stop-color="#B40009"/>
<stop offset="0.99" stop-color="#E60012"/>
</linearGradient>
<linearGradient id="paint3_linear_98_467" x1="211.394" y1="185.521" x2="34.9583" y2="-40.3043" gradientUnits="userSpaceOnUse">
<stop offset="0.03" stop-color="#790000"/>
<stop offset="0.25" stop-color="#E60012"/>
<stop offset="0.43" stop-color="#B7000A"/>
<stop offset="0.66" stop-color="#790000"/>
<stop offset="0.73" stop-color="#890002"/>
<stop offset="0.86" stop-color="#B40009"/>
<stop offset="0.99" stop-color="#E60012"/>
</linearGradient>
<linearGradient id="paint4_linear_98_467" x1="1228.61" y1="185.521" x2="1405.04" y2="-40.3043" gradientUnits="userSpaceOnUse">
<stop offset="0.03" stop-color="#790000"/>
<stop offset="0.25" stop-color="#E60012"/>
<stop offset="0.43" stop-color="#B7000A"/>
<stop offset="0.66" stop-color="#790000"/>
<stop offset="0.73" stop-color="#890002"/>
<stop offset="0.86" stop-color="#B40009"/>
<stop offset="0.99" stop-color="#E60012"/>
</linearGradient>
<linearGradient id="paint5_linear_98_467" x1="309.182" y1="119.296" x2="324.17" y2="-155.655" gradientUnits="userSpaceOnUse">
<stop offset="0.03" stop-color="#790000"/>
<stop offset="0.25" stop-color="#E60012"/>
<stop offset="0.43" stop-color="#B7000A"/>
<stop offset="0.66" stop-color="#790000"/>
<stop offset="0.73" stop-color="#890002"/>
<stop offset="0.86" stop-color="#B40009"/>
<stop offset="0.99" stop-color="#E60012"/>
</linearGradient>
<linearGradient id="paint6_linear_98_467" x1="1199.57" y1="119.021" x2="1184.6" y2="-155.945" gradientUnits="userSpaceOnUse">
<stop offset="0.03" stop-color="#790000"/>
<stop offset="0.25" stop-color="#E60012"/>
<stop offset="0.43" stop-color="#B7000A"/>
<stop offset="0.66" stop-color="#790000"/>
<stop offset="0.73" stop-color="#890002"/>
<stop offset="0.86" stop-color="#B40009"/>
<stop offset="0.99" stop-color="#E60012"/>
</linearGradient>
</defs>
</svg>
