<svg width="152" height="43" viewBox="0 0 152 43" fill="none" xmlns="http://www.w3.org/2000/svg">
<g clip-path="url(#clip0_90_353)">
<path d="M151.92 0.5H0.0797119V42.5H151.92V0.5Z" fill="white"/>
<path d="M14.1591 31.1905L12.5724 28.1398C18.479 24.9936 23.2847 21.4351 26.9859 17.4565L29.4912 19.8162C25.5586 24.0925 20.4339 27.8878 14.1553 31.1944L14.1591 31.1905Z" fill="#0C0C0C"/>
<path d="M61.8067 17.5902C60.8198 18.9762 59.8746 20.2018 58.9331 21.2442V31.5113H55.4826V24.5278C53.9414 25.7764 52.1952 26.9333 50.263 28.0215L48.5852 25.0165C52.2863 22.9127 55.3687 20.3011 57.8285 17.1778H49.7354V13.7109H55.0688V11.4925H58.5156V13.7109H64.3538C63.0898 15.6773 62.2395 16.9716 61.8029 17.594L61.8067 17.5902ZM64.5664 27.674L60.4515 24.2758L62.6115 21.5916L66.7491 24.9669L64.5664 27.674Z" fill="#0C0C0C"/>
<path d="M87.836 29.27L84.803 27.6511L88.022 21.5687L91.055 23.1876L87.836 29.27ZM103.631 16.1584V19.0945H96.2973V31.9045H92.8505V19.0945H85.7482V15.6276H92.8505V11.9278H96.2973V15.6276H100.207C99.7479 15.1198 99.5163 14.5165 99.5163 13.8255C99.5163 13.0618 99.7934 12.4165 100.321 11.882C100.849 11.3513 101.471 11.0955 102.23 11.0955C102.99 11.0955 103.631 11.3513 104.163 11.882C104.69 12.4127 104.945 13.0618 104.945 13.8255C104.945 14.8411 104.508 15.6276 103.635 16.1622L103.631 16.1584ZM101.813 29.27L98.5939 23.1876L101.627 21.5687L104.846 27.6511L101.813 29.27ZM103.168 12.8747C102.914 12.6189 102.595 12.4815 102.227 12.4815C101.858 12.4815 101.536 12.6189 101.285 12.8747C101.031 13.1305 100.894 13.4513 100.894 13.8216C100.894 14.192 101.031 14.5165 101.285 14.7685C101.54 15.0244 101.858 15.1618 102.227 15.1618C102.595 15.1618 102.918 15.0244 103.168 14.7685C103.422 14.5127 103.559 14.192 103.559 13.8216C103.559 13.4513 103.422 13.1267 103.168 12.8747Z" fill="#0C0C0C"/>
<path d="M128.393 21.7902L123.427 20.8433L124.073 17.4451L129.038 18.3691L128.393 21.7902ZM125.382 31.2936L123.796 28.2429C129.702 25.0967 134.508 21.5382 138.209 17.5596L140.714 19.9193C136.782 24.1956 131.657 27.9909 125.382 31.2975V31.2936ZM129.429 16.2615L124.464 15.3145L125.086 11.9164L130.051 12.8404L129.429 16.2615ZM138.991 14.9671L137.336 13.3711L135.726 15.0358L134.094 13.4398L135.704 11.7751L137.336 13.3711L138.945 11.7064L140.578 13.3024L138.991 14.9671Z" fill="#0C0C0C"/>
<path d="M39.7101 42.3664H0V0.5H39.7101V42.3664ZM37.5236 34.7644V8.102H2.18271V34.7605H37.5236V34.7644ZM24.1654 2.54655V6.07073H26.5228V2.54655H24.1654ZM29.6621 2.54655V6.07073H32.0194V2.54655H29.6621ZM18.6688 2.54655V6.07073H21.0261V2.54655H18.6688ZM13.176 2.54655V6.07073H15.5333V2.54655H13.176ZM7.67934 2.54655V6.07073H10.0367V2.54655H7.67934ZM2.1865 2.54655V6.07073H4.54383V2.54655H2.1865ZM37.5122 2.54655H35.1549V6.07073H37.5122V2.54655ZM24.1654 36.5398V40.3198H26.5228V36.5398H24.1654ZM37.5122 36.5398H35.1549V40.3198H37.5122V36.5398ZM32.0194 36.5398H29.6621V40.3198H32.0194V36.5398ZM18.6688 36.5398V40.3198H21.0261V36.5398H18.6688ZM13.176 36.5398V40.3198H15.5333V36.5398H13.176ZM7.67934 36.5398V40.3198H10.0367V36.5398H7.67934ZM2.1865 36.5398V40.3198H4.54383V36.5398H2.1865Z" fill="#0C0C0C"/>
<path d="M77.1388 42.3664H37.4287V0.5H77.1388V42.3664ZM74.9561 34.7644V8.102H39.6152V34.7605H74.9561V34.7644ZM61.5979 2.54655V6.07073H63.9553V2.54655H61.5979ZM67.0908 2.54655V6.07073H69.4481V2.54655H67.0908ZM56.1013 2.54655V6.07073H58.4586V2.54655H56.1013ZM50.6047 2.54655V6.07073H52.962V2.54655H50.6047ZM45.1118 2.54655V6.07073H47.4692V2.54655H45.1118ZM39.6152 2.54655V6.07073H41.9725V2.54655H39.6152ZM74.9447 2.54655H72.5874V6.07073H74.9447V2.54655ZM61.5979 36.5398V40.3198H63.9553V36.5398H61.5979ZM74.9447 36.5398H72.5874V40.3198H74.9447V36.5398ZM69.4481 36.5398H67.0908V40.3198H69.4481V36.5398ZM56.1013 36.5398V40.3198H58.4586V36.5398H56.1013ZM50.6047 36.5398V40.3198H52.962V36.5398H50.6047ZM45.1118 36.5398V40.3198H47.4692V36.5398H45.1118ZM39.6152 36.5398V40.3198H41.9725V36.5398H39.6152Z" fill="#0C0C0C"/>
<path d="M114.571 42.3664H74.8612V0.5H114.571V42.3664ZM112.385 34.7644V8.102H77.0439V34.7605H112.385V34.7644ZM99.0266 2.54655V6.07073H101.384V2.54655H99.0266ZM104.523 2.54655V6.07073H106.881V2.54655H104.523ZM93.53 2.54655V6.07073H95.8873V2.54655H93.53ZM88.0372 2.54655V6.07073H90.3945V2.54655H88.0372ZM82.5405 2.54655V6.07073H84.8979V2.54655H82.5405ZM77.0477 2.54655V6.07073H79.405V2.54655H77.0477ZM112.373 2.54655H110.016V6.07073H112.373V2.54655ZM99.0266 36.5398V40.3198H101.384V36.5398H99.0266ZM112.373 36.5398H110.016V40.3198H112.373V36.5398ZM106.881 36.5398H104.523V40.3198H106.881V36.5398ZM93.53 36.5398V40.3198H95.8873V36.5398H93.53ZM88.0372 36.5398V40.3198H90.3945V36.5398H88.0372ZM82.5405 36.5398V40.3198H84.8979V36.5398H82.5405ZM77.0477 36.5398V40.3198H79.405V36.5398H77.0477Z" fill="#0C0C0C"/>
<path d="M152 42.3664H112.29V0.5H152V42.3664ZM149.817 34.7644V8.102H114.476V34.7605H149.817V34.7644ZM136.459 2.54655V6.07073H138.816V2.54655H136.459ZM141.952 2.54655V6.07073H144.309V2.54655H141.952ZM130.963 2.54655V6.07073H133.32V2.54655H130.963ZM125.466 2.54655V6.07073H127.823V2.54655H125.466ZM119.973 2.54655V6.07073H122.33V2.54655H119.973ZM114.476 2.54655V6.07073H116.834V2.54655H114.476ZM149.806 2.54655H147.449V6.07073H149.806V2.54655ZM136.459 36.5398V40.3198H138.816V36.5398H136.459ZM149.806 36.5398H147.449V40.3198H149.806V36.5398ZM144.309 36.5398H141.952V40.3198H144.309V36.5398ZM130.963 36.5398V40.3198H133.32V36.5398H130.963ZM125.466 36.5398V40.3198H127.823V36.5398H125.466ZM119.973 36.5398V40.3198H122.33V36.5398H119.973ZM114.476 36.5398V40.3198H116.834V36.5398H114.476Z" fill="#0C0C0C"/>
<path d="M17.0744 17.5062C18.4937 17.5062 19.6443 16.3489 19.6443 14.9213C19.6443 13.4937 18.4937 12.3364 17.0744 12.3364C15.6551 12.3364 14.5045 13.4937 14.5045 14.9213C14.5045 16.3489 15.6551 17.5062 17.0744 17.5062Z" stroke="#0C0C0C" stroke-width="2.54" stroke-miterlimit="10"/>
<path d="M17.0745 12.3364V17.5062" stroke="#0C0C0C" stroke-width="2.54" stroke-miterlimit="10"/>
<path d="M14.85 16.2118L19.2989 13.6269" stroke="#0C0C0C" stroke-width="2.54" stroke-miterlimit="10"/>
<path d="M19.2989 16.2118L14.85 13.6269" stroke="#0C0C0C" stroke-width="2.54" stroke-miterlimit="10"/>
<path d="M14.0377 22.2636C15.457 22.2636 16.6076 21.1063 16.6076 19.6787C16.6076 18.2511 15.457 17.0938 14.0377 17.0938C12.6184 17.0938 11.4678 18.2511 11.4678 19.6787C11.4678 21.1063 12.6184 22.2636 14.0377 22.2636Z" stroke="#0C0C0C" stroke-width="2.54" stroke-miterlimit="10"/>
<path d="M14.0377 17.0938V22.2636" stroke="#0C0C0C" stroke-width="2.54" stroke-miterlimit="10"/>
<path d="M11.8132 20.9731L16.2622 18.3882" stroke="#0C0C0C" stroke-width="2.54" stroke-miterlimit="10"/>
<path d="M16.2622 20.9731L11.8132 18.3882" stroke="#0C0C0C" stroke-width="2.54" stroke-miterlimit="10"/>
</g>
<defs>
<clipPath id="clip0_90_353">
<rect width="152" height="42" fill="white" transform="translate(0 0.5)"/>
</clipPath>
</defs>
</svg>
